<svg xmlns="http://www.w3.org/2000/svg" width="200" height="179" viewBox="0 0 200 179" version="1.1"><path d="M 112 9.071 C 112 15.366, 113.954 19.447, 115.680 16.758 C 116.209 15.934, 116.703 16.707, 117.112 19 C 117.539 21.392, 117.778 19.914, 117.868 14.332 C 118.026 4.581, 117.541 3, 114.393 3 C 112.132 3, 112 3.334, 112 9.071 M 83 12.882 C 79.975 13.859, 75.925 15.468, 74 16.458 C 68.758 19.155, 60.818 25.151, 61.536 25.870 C 62.723 27.057, 64.502 26.637, 67.500 24.461 C 76.934 17.615, 90.544 13.442, 100.512 14.339 C 103.819 14.637, 107.307 15.180, 108.262 15.547 C 109.554 16.043, 110 15.703, 110 14.224 C 110 11.623, 107.506 11.018, 97 11.067 C 91.695 11.092, 86.432 11.775, 83 12.882 M 120 17.832 C 120 20.628, 132.230 28.054, 133.487 26.021 C 133.981 25.221, 122.144 16, 120.623 16 C 120.280 16, 120 16.824, 120 17.832 M 117.160 47.950 C 116.992 53.656, 115.509 53.992, 114.727 48.500 C 114.467 46.674, 114.235 47.653, 114.135 51 C 114.016 54.959, 113.698 56.080, 113 55 C 112.304 53.924, 112.026 54.950, 112.015 58.633 C 112.002 63.156, 111.732 63.818, 109.750 64.200 C 107.566 64.620, 107.505 64.410, 107.658 57.066 C 107.745 52.905, 107.561 50.625, 107.250 52 C 106.726 54.310, 106.587 54.197, 105.418 50.500 L 104.154 46.500 104.062 51.500 C 103.995 55.117, 103.701 56.085, 103 55 C 102.328 53.960, 102.026 55.865, 102.015 61.215 C 102.002 67.897, 101.732 69.073, 100 70 C 98.070 71.033, 98 70.760, 98 62.235 C 98 57.376, 97.585 52.973, 97.077 52.450 C 96.569 51.928, 95.962 50.150, 95.727 48.500 C 95.422 46.356, 95.228 46.927, 95.050 50.500 C 94.845 54.609, 94.658 55.055, 94 53 C 93.496 51.426, 93.162 54.959, 93.100 62.536 C 93.006 73.872, 92.884 74.571, 91 74.571 C 89.113 74.571, 89 73.905, 89 62.786 C 89 55.595, 88.610 51, 88 51 C 87.450 51, 87 50.100, 87 49 C 87 47.900, 86.550 47, 86 47 C 85.450 47, 84.993 48.462, 84.985 50.250 C 84.973 52.716, 84.736 53.138, 84 52 C 83.343 50.983, 83.026 54.155, 83.015 61.857 C 83.002 71.798, 82.803 73.138, 81.418 72.607 C 80.548 72.273, 79.648 72, 79.418 72 C 79.188 72, 78.955 67.162, 78.900 61.250 C 78.836 54.321, 78.516 51.389, 78 53 C 77.319 55.126, 77.164 54.827, 76.963 51 C 76.834 48.525, 76.533 47.513, 76.294 48.750 C 76.056 49.987, 75.458 51, 74.965 51 C 74.473 51, 73.942 55.607, 73.785 61.238 C 73.539 70.060, 73.258 71.523, 71.750 71.812 C 70.192 72.110, 70 71.196, 70 63.502 C 70 54.852, 68.950 51.850, 66.241 52.753 C 65.359 53.047, 65 56.179, 65 63.583 L 65 74 62.250 74 C 60.312 74, 58.685 75.021, 56.740 77.460 C 52.831 82.358, 49.120 97.804, 51.639 98.692 C 52.346 98.940, 53.426 96.129, 54.481 91.296 C 56.330 82.831, 58.213 79, 60.523 79 C 61.335 79, 62 78.550, 62 78 C 62 77.450, 62.675 77, 63.500 77 C 64.738 77, 65 78.833, 65 87.500 L 65 98 67.500 98 L 70 98 70 86.427 C 70 75.943, 70.165 74.885, 71.750 75.189 C 73.272 75.480, 73.537 76.986, 73.783 86.762 C 74.065 97.966, 74.073 98, 76.533 98 L 79 98 79 86.393 C 79 76.220, 79.195 74.861, 80.582 75.393 C 81.452 75.727, 82.352 76, 82.582 76 C 82.812 76, 83 80.980, 83 87.066 L 83 98.133 85.750 97.816 L 88.500 97.500 88.785 87.853 C 89.052 78.822, 89.196 78.238, 91.035 78.719 C 92.812 79.184, 93 80.130, 93 88.617 C 93 97.959, 93.011 98, 95.500 98 L 98 98 98 86.655 C 98 76.639, 98.231 75.101, 99.969 73.528 C 101.917 71.765, 101.941 71.884, 102.219 84.611 C 102.474 96.285, 102.674 97.509, 104.380 97.836 C 105.414 98.034, 106.656 97.590, 107.141 96.848 C 107.625 96.107, 107.966 89.200, 107.900 81.500 C 107.783 67.979, 107.851 67.489, 109.890 67.180 C 111.960 66.867, 112 67.154, 112 82.497 L 112 98.133 114.750 97.816 L 117.500 97.500 117.500 81.818 C 117.500 66.349, 117.531 66.130, 119.750 65.707 L 122 65.277 122 81.705 L 122 98.133 124.750 97.816 L 127.500 97.500 127.500 82.468 L 127.500 67.437 131.754 68.838 C 137.282 70.659, 140.619 69.347, 147.259 62.742 C 151.242 58.781, 151.925 57.614, 150.951 56.440 C 149.255 54.397, 148.083 54.651, 147.085 57.277 C 146.609 58.529, 144.919 60.945, 143.331 62.646 C 140.920 65.227, 139.652 65.753, 135.652 65.834 C 128.489 65.977, 127.437 64.938, 127.829 58.107 C 128.095 53.489, 127.804 52.097, 126.329 50.938 C 124.649 49.617, 124.613 49.644, 125.891 51.273 C 127.111 52.827, 127.080 52.968, 125.641 52.416 C 124.539 51.993, 124 52.314, 124 53.393 C 124 54.277, 123.550 55, 123 55 C 122.450 55, 122 56.527, 122 58.394 C 122 61.288, 121.668 61.768, 119.750 61.651 C 117.640 61.522, 117.520 61.136, 117.827 55.442 C 118.007 52.102, 117.967 47.824, 117.737 45.935 C 117.436 43.458, 117.275 44.020, 117.160 47.950 M 48.500 56 C 48.840 56.550, 49.316 57, 49.559 57 C 49.802 57, 50 56.550, 50 56 C 50 55.450, 49.523 55, 48.941 55 C 48.359 55, 48.160 55.450, 48.500 56 M 48.006 60.500 C 47.803 63.467, 47.792 63.472, 47 61 C 46.420 59.188, 46.189 60.289, 46.161 65 C 46.120 71.817, 48.883 82.696, 50.536 82.225 C 51.716 81.888, 51.567 79.226, 49.679 67 C 48.872 61.775, 48.120 58.850, 48.006 60.500 M 146.669 70.814 C 145.760 71.818, 144.137 75.195, 143.062 78.318 C 140.592 85.499, 134.994 93.975, 129.645 98.636 C 123.819 103.711, 112.755 108.734, 104.418 110.088 C 90.860 112.289, 74.422 107.162, 64.470 97.626 C 59.868 93.216, 58 92.603, 58 95.504 C 58 97.335, 68.116 105.518, 74.171 108.587 C 99.125 121.232, 130.166 111.274, 143.202 86.442 C 146.522 80.117, 149.668 70.335, 148.695 69.361 C 148.489 69.156, 147.578 69.809, 146.669 70.814" stroke="none" fill="#d6a632" fill-rule="evenodd"/><path d="M 112.015 34.750 C 112.024 45.128, 112.463 54.170, 113 55 C 113.697 56.079, 114.012 54.956, 114.121 51 C 114.204 47.975, 114.458 46.625, 114.685 48 C 115.578 53.406, 116.406 53.233, 117.079 47.500 C 118.014 39.529, 118.153 26.396, 117.363 20.631 C 116.846 16.856, 116.470 16.195, 115.363 17.114 C 114.360 17.946, 114 17.948, 114 17.122 C 114 16.505, 113.550 16, 113 16 C 112.368 16, 112.006 22.906, 112.015 34.750 M 84.250 18.662 C 82.713 19.283, 82.485 49.656, 84 52 C 84.736 53.138, 84.973 52.716, 84.985 50.250 C 84.993 48.462, 85.450 47, 86 47 C 86.550 47, 87 47.900, 87 49 C 87 50.100, 87.450 51, 88 51 C 88.625 51, 89 45.036, 89 35.107 C 89 21.537, 88.769 19.125, 87.418 18.607 C 86.548 18.273, 85.761 18.036, 85.668 18.079 C 85.576 18.122, 84.938 18.385, 84.250 18.662 M 94.250 23.667 C 93.331 24.034, 93.026 27.656, 93.100 37.333 C 93.204 51.064, 94.564 60.246, 95.050 50.500 C 95.228 46.927, 95.422 46.356, 95.727 48.500 C 95.962 50.150, 96.582 51.940, 97.105 52.478 C 97.707 53.097, 97.954 47.994, 97.778 38.560 C 97.508 24.067, 97.139 22.511, 94.250 23.667 M 56.661 30.815 C 49.132 41.146, 44.942 53.920, 46.924 60.500 L 47.828 63.500 48.064 60.750 C 48.194 59.237, 48.345 57.438, 48.400 56.750 C 48.455 56.063, 48.747 55.275, 49.049 55 C 49.350 54.725, 50.181 52.475, 50.894 50 C 52.722 43.655, 56.587 36.209, 60.584 31.332 C 62.463 29.039, 64 26.997, 64 26.795 C 64 26.592, 63.117 26.359, 62.037 26.278 C 60.758 26.181, 58.886 27.761, 56.661 30.815 M 133.891 30.875 C 139.083 37.195, 141.474 41.483, 143.571 48.227 C 144.983 52.769, 145.625 53.726, 146.675 52.854 C 148.644 51.221, 148.319 49.178, 144.964 42.086 C 140.435 32.512, 135.527 26.250, 132.552 26.250 C 130.131 26.250, 130.153 26.324, 133.891 30.875 M 102.667 36.667 C 101.629 37.704, 101.913 53.318, 103 55 C 103.701 56.085, 103.995 55.117, 104.062 51.500 L 104.154 46.500 105.381 50.500 L 106.608 54.500 107.304 51.125 C 108.389 45.863, 108.124 38.524, 106.800 37.200 C 105.472 35.872, 103.691 35.642, 102.667 36.667 M 74.701 41.632 C 73.652 42.682, 73.855 51, 74.930 51 C 75.442 51, 76.056 49.987, 76.294 48.750 C 76.533 47.513, 76.830 48.525, 76.954 51 L 77.180 55.500 78.145 52.150 C 79.503 47.433, 78.864 41.585, 76.951 41.224 C 76.099 41.063, 75.087 41.246, 74.701 41.632 M 66.250 50.731 C 65.563 50.970, 65 51.627, 65 52.190 C 65 52.753, 65.675 52.955, 66.500 52.638 C 67.325 52.322, 68 52.499, 68 53.031 C 68 53.564, 68.450 54, 69 54 C 70.441 54, 70.233 51.300, 68.750 50.754 C 68.063 50.501, 66.938 50.491, 66.250 50.731 M 123.250 50.662 C 121.769 51.260, 121.553 55, 123 55 C 123.550 55, 124 54.277, 124 53.393 C 124 52.314, 124.539 51.993, 125.641 52.416 C 127.014 52.943, 127.076 52.796, 126.019 51.523 C 125.324 50.685, 124.698 50.036, 124.628 50.079 C 124.557 50.122, 123.938 50.385, 123.250 50.662 M 48.500 121.888 C 33.979 125.653, 27.177 140.680, 33.986 153.953 C 36.218 158.305, 39.261 161.151, 44.500 163.787 C 46.700 164.894, 49.557 167.237, 50.849 168.993 C 53.537 172.647, 60.042 175.946, 64.625 175.978 C 73.867 176.043, 77.572 172.663, 69.283 171.728 C 65.788 171.334, 63.958 170.490, 62.220 168.470 L 59.874 165.742 64.735 162.966 C 67.409 161.439, 70.925 158.273, 72.548 155.931 C 75.228 152.063, 75.500 150.919, 75.500 143.512 C 75.500 136.303, 75.183 134.875, 72.772 131.232 C 67.941 123.931, 56.945 119.698, 48.500 121.888 M 102 123 C 100.900 124.100, 100 125.675, 100 126.500 C 100 127.325, 100.900 128.900, 102 130 C 103.100 131.100, 104.675 132, 105.500 132 C 106.325 132, 107.900 131.100, 109 130 C 110.100 128.900, 111 127.325, 111 126.500 C 111 125.675, 110.100 124.100, 109 123 C 107.900 121.900, 106.325 121, 105.500 121 C 104.675 121, 103.100 121.900, 102 123 M 4 123.500 C 4 124.433, 4.944 125, 6.500 125 L 9 125 9 143.430 C 9 161.582, 8.967 161.866, 6.828 162.180 C 5.634 162.356, 4.471 163.063, 4.245 163.750 C 3.932 164.700, 6.514 165, 15 165 C 23.486 165, 26.068 164.700, 25.755 163.750 C 25.529 163.063, 24.412 162.362, 23.274 162.194 C 20.413 161.771, 20.027 159.547, 20.027 143.500 C 20.027 126.833, 20.383 125, 23.617 125 C 25.069 125, 26 124.414, 26 123.500 C 26 122.258, 24.111 122, 15 122 C 5.889 122, 4 122.258, 4 123.500 M 80 123.031 C 80 123.599, 80.675 124.322, 81.500 124.638 C 83.739 125.498, 83.739 161.502, 81.500 162.362 C 80.675 162.678, 80 163.401, 80 163.969 C 80 164.591, 83.171 165, 88 165 C 92.829 165, 96 164.591, 96 163.969 C 96 163.401, 95.325 162.678, 94.500 162.362 C 93.236 161.877, 93 158.653, 93 141.893 L 93 122 86.500 122 C 82.701 122, 80 122.429, 80 123.031 M 48.241 127.250 C 44.903 130.813, 43.775 134.907, 43.764 143.500 C 43.753 152.222, 45.902 159.342, 49.055 161.029 C 54.703 164.052, 61.043 160.825, 63.024 153.917 C 64.281 149.532, 64.281 137.468, 63.024 133.083 C 60.806 125.349, 52.932 122.242, 48.241 127.250 M 152.071 135.711 C 147.778 137.951, 145.119 141.525, 143.982 146.584 C 141.448 157.863, 149.611 167.603, 159.345 164.915 C 162.957 163.918, 168 158.970, 168 156.423 C 168 154.454, 167.470 154.621, 164.591 157.500 C 163.216 158.875, 161.249 160, 160.220 160 C 157.627 160, 154.158 156.039, 153.390 152.202 L 152.750 149 160.375 149 C 167.881 149, 168 148.960, 168 146.450 C 168 145.048, 167.371 142.684, 166.602 141.198 C 163.325 134.861, 157.741 132.752, 152.071 135.711 M 188.361 135.922 C 186.634 136.975, 184.982 138.435, 184.690 139.168 C 184.397 139.901, 184.122 139.262, 184.079 137.750 C 184.001 135.040, 183.905 135, 177.500 135 C 171.386 135, 169.127 136.067, 172.500 137.362 C 173.717 137.829, 174 140.185, 174 149.862 C 174 159.539, 173.717 161.895, 172.500 162.362 C 171.675 162.678, 171 163.401, 171 163.969 C 171 165.366, 186.677 165.332, 187.542 163.933 C 187.905 163.345, 187.257 162.619, 186.101 162.316 C 184.183 161.815, 184 161.056, 184 153.606 C 184 147.756, 184.451 144.800, 185.594 143.169 C 187.111 141.003, 187.308 140.972, 189.675 142.523 C 192.684 144.494, 194.634 143.896, 196.167 140.532 C 197.122 138.436, 197.010 137.668, 195.504 136.004 C 193.257 133.521, 192.315 133.510, 188.361 135.922 M 97 135.500 C 97 135.775, 97.900 136.900, 99 138 C 100.734 139.734, 101 141.333, 101 150.010 C 101 158.694, 100.742 160.240, 99.051 161.688 C 97.979 162.606, 97.320 163.709, 97.587 164.140 C 97.853 164.571, 107.295 164.938, 118.569 164.955 C 134.059 164.979, 139.162 164.683, 139.452 163.743 C 139.663 163.059, 140.055 160.588, 140.323 158.250 C 140.845 153.693, 139.510 152.527, 138.079 156.291 C 136.845 159.539, 135.119 160.672, 130.160 161.490 C 125.024 162.337, 124.702 163.359, 134.659 147.223 C 138.146 141.571, 141 136.509, 141 135.973 C 141 135.394, 135.939 135, 128.500 135 L 116 135 116 139.500 C 116 144.415, 117.504 145.435, 118.989 141.528 C 119.960 138.975, 123.229 137.586, 126.901 138.167 C 128.825 138.471, 128.390 139.532, 121.848 150.500 C 117.911 157.100, 114.573 162.649, 114.431 162.831 C 114.288 163.013, 113.233 162.660, 112.086 162.046 C 110.136 161.002, 110 160.084, 110 147.965 L 110 135 103.500 135 C 99.925 135, 97 135.225, 97 135.500 M 154.035 138.934 C 153.466 139.998, 153 142.023, 153 143.434 C 153 145.700, 153.409 146, 156.500 146 C 160.335 146, 160.912 144.530, 159.025 139.565 C 157.869 136.526, 155.485 136.225, 154.035 138.934" stroke="none" fill="#fcfcfc" fill-rule="evenodd"/></svg>