<svg version="1.1" id="Layer_1" xmlns="http://www.w3.org/2000/svg" xmlns:xlink="http://www.w3.org/1999/xlink" x="0px" y="0px"
	 width="100%" viewBox="0 0 1148 332" enable-background="new 0 0 1148 332" xml:space="preserve">
<path fill="#FFFFFF" opacity="1.000000" stroke="none" 
	d="
M766.000000,333.000000 
	C510.666656,333.000000 255.833328,333.000000 1.000000,333.000000 
	C1.000000,222.333328 1.000000,111.666664 1.000000,1.000000 
	C383.666656,1.000000 766.333313,1.000000 1149.000000,1.000000 
	C1149.000000,111.666664 1149.000000,222.333328 1149.000000,333.000000 
	C1021.500000,333.000000 894.000000,333.000000 766.000000,333.000000 
M257.183075,172.449234 
	C257.426910,172.905457 257.670746,173.361679 257.126312,173.987198 
	C252.073502,174.998291 247.020706,176.009384 242.020706,176.081329 
	C242.020432,169.386642 242.020157,162.691971 242.141495,155.070297 
	C242.102005,150.045135 242.062515,145.019989 242.130035,139.064987 
	C242.095184,133.708832 242.060333,128.352661 242.113281,122.079102 
	C242.082138,118.384537 242.050995,114.689980 242.096313,110.097015 
	C242.091370,107.939827 242.220123,105.772148 242.051941,103.627762 
	C241.757401,99.872467 239.556351,97.951782 235.828918,98.024979 
	C232.301880,98.094238 230.286346,100.074783 230.054581,103.562195 
	C229.890198,106.035934 230.085114,108.533562 230.032257,111.935295 
	C230.062714,115.628433 230.093185,119.321579 230.028656,123.943794 
	C230.063400,129.300995 230.098145,134.658188 230.027222,140.941849 
	C230.064667,145.966568 230.102112,150.991302 230.028915,156.945328 
	C230.003281,163.098282 229.867767,169.254425 230.046158,175.401459 
	C230.081146,176.607437 231.330139,177.778183 232.043411,179.697968 
	C231.404907,181.472748 230.766388,183.247528 229.996964,185.713776 
	C225.767761,189.665878 221.538544,193.617981 216.366608,198.451050 
	C216.695328,195.441147 216.828537,194.221497 217.103806,192.078079 
	C217.051926,187.387527 217.000046,182.696960 217.094635,177.079880 
	C217.047195,171.721542 216.999741,166.363190 217.086029,160.078003 
	C217.042496,155.053436 216.998962,150.028885 217.074661,144.074799 
	C217.036636,138.718216 216.998611,133.361618 217.068359,127.075394 
	C217.033844,122.052773 216.999329,117.030159 217.058319,111.080582 
	C217.028549,106.722427 216.998779,102.364273 217.039917,97.070724 
	C217.016037,90.712341 216.992157,84.353966 217.028427,77.070938 
	C217.043076,74.407127 216.807739,71.712975 217.126617,69.086090 
	C217.714294,64.244904 214.453674,63.277802 211.034561,63.272926 
	C207.641037,63.268089 204.328354,64.145111 204.861588,69.015251 
	C205.186157,71.979561 204.981277,75.001846 204.951797,78.933479 
	C204.972366,85.289810 204.992920,91.646133 204.958694,98.930038 
	C204.977036,103.287605 204.995392,107.645180 204.947617,112.934242 
	C204.970566,117.956909 204.993515,122.979576 204.930771,128.934052 
	C204.960281,134.289871 204.989792,139.645691 204.919983,145.930832 
	C204.953949,150.954605 204.987915,155.978378 204.911316,161.931824 
	C204.949112,167.288879 204.986908,172.645935 204.902451,178.928314 
	C204.938004,183.619125 204.973541,188.309937 204.872360,193.898163 
	C205.581207,197.176208 202.851685,201.272812 207.214035,204.106125 
	C205.549438,204.479813 203.884277,204.422302 202.224762,204.494431 
	C200.165222,204.583939 198.096451,204.678589 196.056885,204.956253 
	C193.298401,205.331802 190.563889,205.883438 188.464310,206.247604 
	C189.425781,203.314651 190.398758,201.232162 190.735916,199.051361 
	C191.031113,197.141998 190.611938,195.122192 190.727554,192.358887 
	C190.688766,191.541672 190.649979,190.724472 190.833176,189.008026 
	C190.739578,175.017578 190.645996,161.027130 190.785583,146.120789 
	C190.714417,141.422974 190.643265,136.725174 190.784927,131.113098 
	C190.728271,125.763092 190.671600,120.413086 190.832321,114.139633 
	C190.779739,109.445396 190.727158,104.751160 190.846451,99.128006 
	C190.785995,90.062103 190.725540,80.996208 190.823624,71.016174 
	C190.851440,65.559639 190.908920,60.103043 190.898315,54.646580 
	C190.888687,49.693626 187.310699,49.885769 183.909180,49.925800 
	C180.770859,49.962730 177.839371,50.141098 178.002335,54.590328 
	C178.214050,60.369808 178.174622,66.158485 178.097122,72.876770 
	C178.144058,81.933266 178.191010,90.989761 178.111633,100.963669 
	C178.165939,105.658302 178.220230,110.352936 178.142334,115.967415 
	C178.195129,121.319740 178.247925,126.672058 178.136993,132.941269 
	C178.195633,137.635880 178.254272,142.330475 178.150604,147.933990 
	C178.324310,152.600662 178.498016,157.267334 178.564606,162.876648 
	C178.586639,168.561401 178.608673,174.246170 178.497894,180.864258 
	C178.517120,185.222382 178.536331,189.580521 178.394867,194.818954 
	C178.456497,196.603271 178.518112,198.387573 178.614731,200.200180 
	C178.614731,200.200180 178.607925,200.225922 177.986496,200.663757 
	C177.356506,200.751251 176.671539,201.045273 176.104996,200.894440 
	C170.155685,199.310455 164.212463,197.698944 158.307358,195.959930 
	C157.635361,195.762039 157.206604,194.738297 157.530762,194.429642 
	C159.614487,194.581314 161.698212,194.733002 164.050797,194.904251 
	C164.050797,189.317261 164.050797,184.156738 164.187195,178.083359 
	C164.141861,174.386871 164.096527,170.690369 164.180069,166.067719 
	C164.134781,161.042923 164.089478,156.018143 164.160675,150.063843 
	C164.123062,144.373108 164.085464,138.682373 164.146423,132.059891 
	C164.139404,127.259514 163.984207,122.453415 164.168930,117.660431 
	C164.338211,113.267647 161.639359,112.859413 158.362289,112.973351 
	C155.182800,113.083908 151.786621,112.785660 151.908890,117.625046 
	C152.046753,123.082672 152.004028,128.544861 151.946930,134.936478 
	C151.982742,140.625763 152.018555,146.315033 151.944550,152.932373 
	C151.983932,157.956879 152.023315,162.981400 151.939011,168.919800 
	C151.981735,172.613907 152.024460,176.308014 151.931122,180.921417 
	C152.615845,185.688965 149.058975,192.008636 155.934601,194.625549 
	C153.840286,194.742920 151.138962,194.064957 149.758896,195.118195 
	C144.378464,199.224518 138.105286,199.291504 132.150742,199.298706 
	C140.027908,196.402039 140.035110,196.401932 139.898773,187.460724 
	C139.881287,186.314789 139.742249,185.170700 139.858536,183.113754 
	C139.794128,179.082672 139.729721,175.051575 139.859528,170.101547 
	C139.805969,164.421692 139.752411,158.741852 139.898590,152.140121 
	C139.916916,148.849991 140.064743,145.552704 139.883072,142.273651 
	C139.819748,141.130386 139.054092,139.144394 138.418732,139.064896 
	C135.434296,138.691360 132.206177,138.255203 129.437668,139.084839 
	C128.207718,139.453384 127.435974,142.711319 127.211342,144.741302 
	C126.908234,147.480408 127.333275,150.300095 127.267563,153.991791 
	C127.343399,159.667786 127.419235,165.343765 127.275261,171.922791 
	C127.352005,175.961578 127.428749,180.000351 127.290550,184.940475 
	C127.290550,189.679977 127.290550,194.419464 127.290550,199.255768 
	C129.183868,199.554214 130.590088,199.775879 132.185974,200.512878 
	C132.129089,200.686859 132.072205,200.860840 131.200073,201.012589 
	C124.753532,202.215881 118.300758,203.387665 111.867447,204.657974 
	C110.950645,204.839020 109.830864,205.275909 109.311272,205.972168 
	C106.386726,209.891083 103.617065,213.925583 100.230339,218.286972 
	C97.855507,225.529510 95.480675,232.772034 92.857040,240.754547 
	C91.246017,248.015945 89.768219,255.310577 87.968094,262.524780 
	C87.060211,266.163208 87.990089,268.228210 92.365646,269.018982 
	C94.311974,259.338684 96.252403,249.687714 98.687721,239.487808 
	C99.956261,232.770859 100.999878,225.978821 105.712456,219.884827 
	C107.929207,217.368134 109.675758,215.004456 114.096504,215.392761 
	C116.139885,215.572266 118.513275,211.161713 120.883652,208.992416 
	C121.539574,208.392151 122.713692,208.337265 123.664093,208.085068 
	C124.776009,207.790009 125.903275,207.552811 127.114410,208.323196 
	C127.176414,208.662277 127.238411,209.001358 127.204811,210.188705 
	C127.296700,212.488281 127.388588,214.787842 127.308205,217.994400 
	C127.382553,223.334137 127.456902,228.673859 127.315262,234.922165 
	C127.390144,239.630142 127.465034,244.338135 127.324867,249.949753 
	C127.294563,254.423218 127.273872,258.896790 127.231323,263.370117 
	C127.185982,268.138458 130.733215,267.974304 133.845581,267.949860 
	C136.789719,267.926697 140.098251,267.981842 139.927734,263.426300 
	C139.748215,258.630585 139.733063,253.828720 139.856430,248.114212 
	C139.787003,243.414902 139.717560,238.715576 139.854446,233.100754 
	C139.797379,227.754181 139.740311,222.407593 139.899200,216.167709 
	C139.915771,213.931061 140.232315,211.636749 139.818192,209.482910 
	C139.620850,208.456573 138.033737,207.697449 137.035126,206.248840 
	C137.045410,205.869217 137.055679,205.489594 137.046280,204.970718 
	C137.046280,204.970718 136.942062,204.876312 137.761307,204.935791 
	C143.814407,202.888046 149.539734,203.596268 154.297638,207.120010 
	C153.880356,207.263016 153.463074,207.406006 152.492493,207.506882 
	C152.340088,208.002808 152.187698,208.498734 151.899124,209.888062 
	C151.956909,212.594360 152.014694,215.300659 151.920547,218.925186 
	C151.974716,223.285629 152.028900,227.646057 151.917221,232.922775 
	C151.975723,237.284698 152.034210,241.646637 151.920792,246.931091 
	C151.892792,252.401123 151.982574,257.875092 151.800217,263.339966 
	C151.649353,267.860443 154.791656,267.948334 157.799316,267.960419 
	C160.907593,267.972900 164.447968,268.232452 164.331421,263.382446 
	C164.192184,257.587799 164.140610,251.791031 164.256485,245.084930 
	C164.189957,240.721313 164.123444,236.357681 164.248444,231.081421 
	C164.187729,226.724716 164.127029,222.368027 164.411682,217.333313 
	C163.960114,212.560822 163.508545,207.788345 163.868820,203.005035 
	C169.254196,205.339813 174.639557,207.674606 179.230026,210.256195 
	C178.928864,215.524017 178.627701,220.791824 178.175385,226.976349 
	C178.238968,232.997391 178.302551,239.018448 178.188416,245.955002 
	C178.158173,251.758438 178.239273,257.565247 178.062057,263.364197 
	C177.923294,267.904877 181.110489,267.949860 184.093155,267.954193 
	C187.183411,267.958679 190.813904,268.221283 190.763062,263.436951 
	C190.697937,257.309326 190.569778,251.182327 190.719528,244.140961 
	C190.653580,238.120972 190.587631,232.100983 190.769318,225.171616 
	C190.937912,219.424377 192.859879,212.823898 184.081772,211.415924 
	C184.025925,211.406967 184.016327,211.109711 184.815399,210.845795 
	C188.151550,211.581619 192.025040,211.503021 194.687607,213.259750 
	C198.003357,215.447418 200.628235,215.638718 204.590546,213.952194 
	C204.854599,213.976852 205.118668,214.001495 205.046356,214.890991 
	C205.038376,218.594681 205.030396,222.298355 204.872314,226.927017 
	C204.925171,232.285919 204.978027,237.644821 204.871231,243.929123 
	C204.840973,250.399063 204.925919,256.872253 204.743088,263.337860 
	C204.603134,268.287170 208.145081,267.925323 211.198883,267.955078 
	C214.181259,267.984192 217.364014,267.967957 217.215103,263.398193 
	C216.993790,256.605255 217.019333,249.804276 217.126282,242.086151 
	C217.066544,236.725815 217.006805,231.365494 217.122375,225.081406 
	C217.114853,219.295273 217.107330,213.509140 216.928894,207.370422 
	C216.604462,207.433273 216.280029,207.496124 215.511505,207.865662 
	C215.341827,207.925461 215.172150,207.985245 214.865021,207.325455 
	C214.796738,207.090988 214.728470,206.856522 215.164124,206.180878 
	C220.117340,202.442139 225.070572,198.703400 230.101212,195.885529 
	C230.112503,199.261536 230.123810,202.637543 230.012100,206.934250 
	C230.055847,211.293564 230.099594,215.652893 230.013535,220.936523 
	C230.056030,225.961472 230.098541,230.986404 230.009369,236.928497 
	C230.054138,240.955688 230.098907,244.982864 230.005585,249.933105 
	C229.994873,253.915390 229.906281,257.899414 229.995193,261.879456 
	C230.085678,265.929810 232.428284,268.061554 236.332932,267.934723 
	C239.946503,267.817383 242.208008,265.722656 242.239288,261.922974 
	C242.274719,257.615570 242.102554,253.306473 242.219131,248.094391 
	C242.156113,244.395142 242.093079,240.695877 242.220840,236.079041 
	C242.156586,231.051727 242.092346,226.024429 242.205933,220.082062 
	C242.149933,215.724945 242.093948,211.367844 242.391083,206.321030 
	C242.324310,201.687042 242.365189,197.046692 242.092194,192.424896 
	C242.042679,191.586349 240.707932,190.823730 239.726578,189.343399 
	C240.112625,188.233719 240.498672,187.124023 241.251862,185.401230 
	C246.380188,181.183533 252.508896,180.251831 258.565765,180.756790 
	C258.049713,181.871735 257.107300,182.979919 257.089539,184.102753 
	C257.000366,189.743088 257.152802,195.387238 257.079193,201.952545 
	C257.131897,207.641205 257.184601,213.329880 257.081116,219.938522 
	C257.097046,224.962616 257.112976,229.986725 256.992096,235.930252 
	C257.038391,240.290131 257.084717,244.650024 256.988983,249.934616 
	C256.971497,253.419983 256.656311,256.938538 257.040039,260.379181 
	C257.300415,262.713562 258.205719,266.639374 259.410706,266.877472 
	C262.423676,267.472900 265.771667,266.372986 269.603851,265.390442 
	C269.624664,255.266479 269.645508,245.142517 269.853149,234.100342 
	C269.793152,229.073944 269.733154,224.047562 269.858582,218.100266 
	C269.800751,212.412491 269.742950,206.724716 269.874359,200.113922 
	C269.816559,194.083801 269.758789,188.053665 269.861816,181.284653 
	C268.229706,180.256821 266.597626,179.228989 264.965515,178.201157 
	C267.580994,177.864929 270.264374,178.604401 272.991882,178.846069 
	C274.959564,179.020401 277.748535,179.285355 278.832367,178.187805 
	C281.331177,175.657349 283.960236,175.621536 287.036255,176.692841 
	C287.024170,177.121323 287.012085,177.549820 286.142426,178.039795 
	C285.749298,178.825287 285.021210,179.608505 285.015900,180.396622 
	C284.971558,186.935181 285.060730,193.474625 284.983917,200.940018 
	C285.026917,206.296585 285.069885,211.653137 284.976105,217.933716 
	C285.021362,222.959076 285.066589,227.984436 284.972015,233.929031 
	C285.019989,238.289154 285.067993,242.649277 284.969818,247.935104 
	C284.948364,253.071030 285.062653,258.212219 284.864807,263.341339 
	C284.689880,267.876587 287.810730,267.974091 290.827087,267.959229 
	C293.914032,267.944031 297.483551,268.247528 297.350403,263.377289 
	C297.201111,257.917603 297.154602,252.455093 297.269531,246.083893 
	C297.203064,241.719864 297.136566,237.355850 297.264069,232.075104 
	C297.198303,227.047409 297.132568,222.019699 297.246796,216.071396 
	C297.186890,210.710464 297.126984,205.349518 297.234283,199.065460 
	C296.998810,193.394791 296.763306,187.724121 297.379791,181.973038 
	C297.948090,181.944458 298.516418,181.915894 299.666748,182.277420 
	C307.510193,185.100632 315.328705,187.997971 323.227020,190.658310 
	C324.278107,191.012344 325.876831,190.424026 326.976227,189.822815 
	C330.248138,188.033585 333.614227,186.299881 336.543945,184.029007 
	C340.914429,180.641388 344.943604,176.813354 349.671478,172.789917 
	C352.110077,169.511276 354.548706,166.232635 357.769409,163.044235 
	C361.823029,163.023361 364.524353,160.851440 363.742798,156.985153 
	C363.316986,154.878601 360.538361,152.138443 358.424683,151.728928 
	C354.787354,151.024231 352.932892,154.070908 352.331299,157.528519 
	C352.190643,158.336899 352.296997,159.188278 351.829437,160.544830 
	C349.472626,163.993332 347.115814,167.441818 344.211243,171.250977 
	C343.639130,171.851730 343.139801,172.550461 342.483459,173.037766 
	C337.128265,177.013626 332.645050,183.402939 324.380188,179.356522 
	C323.490723,178.921051 321.539917,179.526794 320.702911,180.312012 
	C317.608246,183.215118 314.235901,182.641251 310.996460,181.212067 
	C305.926422,178.975281 301.025787,176.354675 295.659363,173.423279 
	C295.388580,172.992905 295.117798,172.562546 294.847015,172.132187 
	C298.869415,171.831161 297.869293,169.352859 297.194183,166.049118 
	C297.149628,161.696655 297.105072,157.344193 297.174286,152.068344 
	C297.173370,148.909088 297.105591,145.748093 297.187531,142.590988 
	C297.303772,138.112961 294.134552,138.037125 291.069702,138.049149 
	C288.041656,138.061035 284.796082,138.017838 284.940308,142.544846 
	C285.051392,146.031708 285.051880,149.522110 284.990997,153.937988 
	C284.970856,157.863754 284.715973,161.810898 285.070099,165.702606 
	C285.179840,166.908279 286.944397,167.963348 287.915131,169.855820 
	C284.937866,169.680664 281.666809,170.219955 279.058655,169.147263 
	C275.886444,167.842590 273.487854,167.760025 270.154938,169.911652 
	C269.877380,169.870895 269.599792,169.830124 269.673615,168.948288 
	C269.678833,163.973572 269.684052,158.998840 269.866180,153.102203 
	C269.810638,148.410065 269.755066,143.717941 269.869232,138.100998 
	C269.820465,132.080933 269.771729,126.060875 269.891815,119.120056 
	C269.846008,115.093735 269.800201,111.067406 269.906982,106.128090 
	C269.868500,102.761627 269.829987,99.395164 269.910614,95.095596 
	C269.867950,88.717079 269.825287,82.338554 269.896210,75.042122 
	C269.845581,70.683014 269.794952,66.323906 269.876801,61.056698 
	C269.673218,56.730106 269.469635,52.403511 269.352356,47.271473 
	C269.466919,44.831848 269.581482,42.392227 269.832214,39.148766 
	C269.498657,36.420513 269.165070,33.692261 268.937469,30.051592 
	C268.905060,26.358948 268.872650,22.666302 268.952148,18.055279 
	C268.952148,14.830318 268.952148,11.605358 268.952148,8.443871 
	C256.597076,6.854600 256.566559,6.881318 257.153442,18.479130 
	C257.161713,18.642145 257.202972,18.803490 257.039825,19.873077 
	C257.105225,23.566677 257.170624,27.260279 257.050354,31.843706 
	C257.104584,34.550735 257.158813,37.257767 257.050537,40.845284 
	C257.098907,43.220020 257.147308,45.594753 257.052734,48.892376 
	C257.093933,53.252441 257.135101,57.612511 257.049896,62.897243 
	C257.083038,67.254677 257.116150,71.612114 257.043030,76.904640 
	C257.076660,83.277054 257.110321,89.649475 257.050415,96.931015 
	C257.089752,100.297318 257.129089,103.663628 257.072174,107.901985 
	C257.280609,111.897919 257.489014,115.893860 257.609802,120.783646 
	C257.476715,126.862823 257.343628,132.942001 257.074249,139.942154 
	C257.123169,144.633942 257.172089,149.325714 257.080353,154.940521 
	C257.093445,160.294525 257.106537,165.648514 257.000519,171.471161 
	C257.000519,171.471161 257.026062,171.954086 257.183075,172.449234 
M310.389923,64.858368 
	C308.449768,63.143738 306.509583,61.429115 304.169739,59.121574 
	C300.768280,56.799427 297.366821,54.477280 293.349548,51.834694 
	C289.181732,49.038143 285.013916,46.241592 280.493988,43.208782 
	C279.121857,51.550407 279.121857,51.550407 287.196838,55.665829 
	C290.696930,57.975071 294.197052,60.284317 297.996674,63.121746 
	C300.048492,64.731895 302.100281,66.342041 304.396576,68.566063 
	C307.099274,70.517937 309.802002,72.469810 312.540131,75.131615 
	C316.428955,80.071472 320.317749,85.011330 324.409119,90.578888 
	C326.925507,94.076218 329.441895,97.573555 332.055359,101.772903 
	C334.628418,106.537956 337.201508,111.303009 339.918030,116.819504 
	C341.247131,120.244553 342.576263,123.669601 344.012451,127.866508 
	C345.459900,133.431854 346.907349,138.997208 348.354797,144.562546 
	C348.818054,144.659378 349.281342,144.756195 349.744629,144.853012 
	C351.154236,142.247055 353.778595,139.597336 353.686676,137.045471 
	C353.551300,133.286560 351.479797,129.597397 350.135284,125.121414 
	C349.061798,122.085625 347.988312,119.049835 346.720245,115.327599 
	C343.872345,109.858162 341.024445,104.388725 337.992340,98.238426 
	C335.687775,94.797096 333.383240,91.355766 330.933594,87.242584 
	C326.607483,82.223923 322.281403,77.205261 317.409424,71.779022 
	C315.259308,69.600273 313.109222,67.421524 310.389923,64.858368 
M119.690765,66.905251 
	C118.066948,68.528656 116.443130,70.152061 114.246971,72.125824 
	C110.471771,76.719337 106.696564,81.312851 102.346626,86.259369 
	C99.873085,90.162361 97.399551,94.065361 94.397285,98.384109 
	C91.335548,104.602577 88.273811,110.821045 84.979652,117.748222 
	C83.586197,122.130165 82.192741,126.512115 80.347374,131.477463 
	C78.950722,138.323761 77.554070,145.170059 76.003281,152.855484 
	C75.744606,158.914902 75.485931,164.974304 75.105652,171.949783 
	C75.716545,178.636658 76.327438,185.323517 76.938576,192.858246 
	C78.370392,204.342117 81.698685,215.255264 87.161369,225.824142 
	C88.509895,221.936172 89.967766,217.866699 89.335716,214.152908 
	C88.064056,206.680847 85.653534,199.402588 83.791679,191.211990 
	C83.166344,184.479630 82.541008,177.747284 82.049301,170.096222 
	C82.328369,164.069382 82.607437,158.042526 83.216751,151.290085 
	C84.579712,144.534195 85.942673,137.778305 87.763023,130.530029 
	C89.283722,126.048981 90.804428,121.567940 92.846153,116.656235 
	C95.883675,110.766144 98.921196,104.876053 102.487167,98.565742 
	C104.924751,95.030762 107.362335,91.495781 110.212425,87.412560 
	C114.067406,82.927727 117.922394,78.442894 122.222031,73.442360 
	C124.205894,71.656425 126.189751,69.870499 128.802658,67.898308 
	C130.920639,66.066086 133.038635,64.233864 135.811951,62.141640 
	C139.207016,59.752834 142.602066,57.364029 146.688965,54.854412 
	C150.783340,52.543720 154.877731,50.233028 159.697281,47.859333 
	C163.803223,46.133793 167.909164,44.408257 172.740128,42.648243 
	C177.826431,41.096600 182.912720,39.544956 188.860123,38.064606 
	C208.860764,34.293068 228.816284,34.564087 249.010559,39.251225 
	C249.010559,36.648624 249.010559,34.547546 249.010559,31.659632 
	C242.144913,30.647844 235.148941,29.206051 228.083542,28.655848 
	C209.903900,27.240149 191.964417,28.544434 173.897079,34.860512 
	C170.528824,36.076122 167.160553,37.291733 163.060883,38.679855 
	C158.963211,40.669670 154.865524,42.659481 150.074661,44.821880 
	C146.707870,46.863907 143.341064,48.905933 139.309738,51.136040 
	C135.838516,53.744411 132.367279,56.352783 128.245895,59.115097 
	C125.577141,61.652905 122.908379,64.190712 119.690765,66.905251 
M337.724670,242.618332 
	C340.147369,237.744553 342.570068,232.870789 345.516388,227.534653 
	C347.664551,221.354828 349.812714,215.175003 352.423889,208.417450 
	C353.763123,202.514999 355.102356,196.612564 356.684723,189.638489 
	C348.650452,194.860443 345.814087,201.353302 344.766724,209.665146 
	C342.566376,215.450317 340.366028,221.235489 337.777985,227.610779 
	C335.213562,232.417053 332.649139,237.223343 329.533722,242.410400 
	C326.334045,246.931183 323.134369,251.451965 319.338043,256.268463 
	C318.908600,256.776672 318.482788,257.287933 318.049225,257.792633 
	C278.237885,304.139038 213.038254,317.763245 158.072510,291.276550 
	C141.109818,283.102631 126.703552,271.628967 113.917938,257.094666 
	C113.362000,256.135803 112.806068,255.176941 111.713196,253.291977 
	C110.652519,256.230896 110.174820,257.554535 109.237129,259.429962 
	C109.949326,261.288971 110.206490,263.548828 111.439781,264.948761 
	C149.732788,308.415497 213.109039,323.693939 266.964447,302.566956 
	C290.532898,293.321289 310.250488,278.861359 326.612427,258.731537 
	C330.133423,253.502365 333.654419,248.273178 337.724670,242.618332 
M495.478455,230.984299 
	C505.634033,242.657913 518.277283,250.510208 533.147949,254.432938 
	C537.761719,255.649994 540.459839,257.554413 542.599121,261.921417 
	C554.653442,286.528290 575.802307,297.489655 602.048279,298.718719 
	C613.603210,299.259796 625.301208,296.746582 636.834229,295.629761 
	C636.834229,292.384338 636.834229,290.434692 636.834229,287.726685 
	C610.785217,290.563660 590.711548,282.714203 581.217712,256.334503 
	C606.497070,251.468277 624.114624,236.803619 635.901245,214.962296 
	C644.465515,199.092255 647.229431,182.053482 645.202087,163.901352 
	C643.607178,149.620667 639.403442,136.420563 631.217529,124.981560 
	C616.258179,104.077080 595.334045,92.225723 569.771484,90.192833 
	C547.680176,88.435989 526.542114,92.087181 508.040436,105.913803 
	C494.969940,115.681595 485.737427,127.965256 479.877258,143.148529 
	C473.944702,158.519318 473.889008,174.260803 476.061829,190.150848 
	C478.157990,205.480667 484.631226,218.928955 495.478455,230.984299 
M427.999603,238.191833 
	C427.666260,234.101318 427.052765,230.011414 427.043640,225.920181 
	C426.966522,191.270172 426.961945,156.619843 427.044922,121.969864 
	C427.055939,117.379288 427.194458,112.684380 428.162750,108.231049 
	C429.075134,104.035080 431.494568,100.118080 436.132385,99.116501 
	C440.563019,98.159660 445.165100,97.996773 449.734192,97.480110 
	C449.734192,96.440514 449.734192,95.381622 449.734192,94.002579 
	C422.524841,94.002579 395.563538,93.971489 368.603271,94.122620 
	C367.583710,94.128334 366.574036,95.898849 365.559753,96.846977 
	C368.879425,97.999542 371.199219,98.135086 373.498596,97.975586 
	C382.439545,97.355339 389.196991,103.175240 389.120270,113.553535 
	C388.824738,153.532318 388.925293,193.514816 389.043610,233.495438 
	C389.081909,246.437668 383.888275,248.568771 375.214355,250.809937 
	C373.179199,251.335800 370.848328,250.668304 368.775024,251.114487 
	C367.581482,251.371323 366.631622,252.760254 365.572052,253.639587 
	C365.863800,254.015839 366.155548,254.392090 366.447296,254.768341 
	C394.196686,254.768341 421.946045,254.768341 449.645081,254.768341 
	C451.098419,250.132584 447.888245,251.046555 445.582642,251.008545 
	C435.481659,250.842056 428.364014,245.979004 427.999603,238.191833 
M857.594543,151.183502 
	C857.435730,151.900696 857.451416,152.723007 857.092041,153.319397 
	C850.906982,163.583664 844.665405,173.813858 838.456726,184.063919 
	C827.215942,202.621567 815.966797,221.174225 804.771118,239.759048 
	C801.898376,244.527756 799.212463,249.408936 796.218262,254.626175 
	C829.481201,254.626175 861.687622,254.626175 893.869446,254.626175 
	C894.987793,241.902634 896.073425,229.550705 897.159058,217.198792 
	C896.493835,216.945175 895.828613,216.691559 895.163330,216.437943 
	C894.109253,218.783157 892.968445,221.093796 892.016602,223.479782 
	C888.517761,232.249374 883.453125,239.588455 874.283508,243.256775 
	C862.656372,247.908173 850.434875,247.502136 837.533691,248.117004 
	C858.579041,213.219940 879.149109,179.111008 900.119141,144.338806 
	C867.570251,144.338806 836.380249,144.338806 805.153320,144.338806 
	C805.153320,154.973557 805.153320,165.269272 805.153320,175.672455 
	C808.226562,176.432205 809.169312,175.573776 810.197632,172.365067 
	C814.593018,158.649445 817.881531,150.154465 837.264526,150.958069 
	C843.750610,151.226990 850.256775,151.012466 857.594543,151.183502 
M710.999695,187.500000 
	C710.999695,156.418945 710.999695,125.337883 710.999695,94.001183 
	C695.923157,94.001183 681.452820,94.059425 666.983643,93.958000 
	C663.597473,93.934265 663.512512,95.396957 664.455078,97.835022 
	C672.116394,98.220657 675.465637,100.198280 676.708191,105.391670 
	C677.388428,108.234840 677.940796,111.192932 677.946594,114.100403 
	C678.026062,154.080338 678.114014,194.061081 677.906799,234.040085 
	C677.863831,242.323959 676.233459,250.256927 665.384644,251.168320 
	C664.782593,251.218903 664.358032,253.382065 663.734314,254.833191 
	C684.325195,254.833191 703.948120,254.833191 723.571045,254.833191 
	C723.866333,254.461975 724.161621,254.090759 724.456970,253.719559 
	C723.411438,252.805679 722.506775,251.408340 721.297668,251.055969 
	C713.115662,248.671555 711.000732,246.005875 711.000061,237.475616 
	C710.998718,221.150406 710.999695,204.825211 710.999695,187.500000 
M915.004578,221.329391 
	C917.149292,226.529099 918.870178,231.955856 921.512573,236.888962 
	C932.543701,257.483124 958.936768,262.587891 977.859741,254.572922 
	C990.632690,249.162811 998.144165,238.614700 1004.052551,226.658691 
	C1004.389465,225.977036 1004.747314,225.305725 1005.222229,224.383377 
	C1003.771362,223.561569 1002.596497,222.896057 1001.794617,222.441833 
	C999.249207,225.438080 996.949890,228.188278 994.604126,230.898285 
	C986.333923,240.452850 979.859192,241.909180 968.099854,238.908737 
	C958.889038,236.558563 954.033203,228.871979 949.976868,220.846024 
	C945.902710,212.784897 944.846680,204.093552 943.974976,194.763855 
	C964.727295,194.763855 984.800476,194.763855 1005.648315,194.763855 
	C1004.703125,188.235916 1004.231018,182.182800 1002.904907,176.322968 
	C998.290222,155.931686 981.367859,137.729492 957.744263,140.847397 
	C948.320374,142.091171 940.210999,145.466919 933.131409,151.421432 
	C912.159973,169.060120 909.930054,197.553894 915.004578,221.329391 
M1065.502441,230.000229 
	C1065.334961,228.371964 1064.984985,226.738647 1065.029663,225.116226 
	C1065.303345,215.194473 1065.790283,205.277359 1065.963501,195.354462 
	C1066.123291,186.198563 1068.634644,177.729126 1073.069824,169.845413 
	C1076.889404,163.055695 1082.853516,161.961929 1089.077271,166.543793 
	C1090.254639,167.410522 1091.522827,168.168655 1092.624023,169.121445 
	C1096.757202,172.697815 1106.820801,173.837204 1110.312500,169.683273 
	C1112.974243,166.516571 1114.725830,162.235535 1115.809814,158.164612 
	C1118.075562,149.656128 1108.946167,138.859238 1100.809448,140.104950 
	C1092.757446,141.337708 1085.443359,144.481155 1079.943359,150.656555 
	C1075.016724,156.188187 1070.549683,162.129166 1065.203613,168.723724 
	C1065.203613,160.065552 1065.203613,152.249100 1065.203613,144.224731 
	C1049.835571,144.224731 1035.090820,144.224731 1020.218933,144.224731 
	C1020.218933,145.483780 1020.218933,146.565567 1020.218933,147.625046 
	C1030.678101,148.748108 1032.658569,152.336502 1032.840454,161.659164 
	C1033.314697,185.968277 1033.079590,210.293137 1032.963013,234.610931 
	C1032.912842,245.063919 1031.114990,247.412354 1022.230408,251.019714 
	C1021.113464,251.473282 1020.390381,252.897003 1018.621460,254.799911 
	C1040.147461,254.799911 1059.915894,254.799911 1079.705811,254.799911 
	C1081.166260,249.378036 1076.390991,250.775238 1074.390381,250.162628 
	C1068.588257,248.385880 1066.041138,245.699585 1066.000122,239.833069 
	C1065.979126,236.835419 1065.959717,233.837769 1065.502441,230.000229 
M777.999695,224.489426 
	C777.999695,197.753784 777.999695,171.018158 777.999695,144.002731 
	C763.128784,144.002731 748.837646,143.944672 734.549622,144.126892 
	C733.544434,144.139694 732.561890,145.926804 730.769348,147.663284 
	C741.493835,148.519165 744.998291,152.288879 744.999329,161.214554 
	C745.002075,186.518478 745.000610,211.822388 745.000122,237.126312 
	C744.999939,246.080780 742.998718,248.626160 734.567749,251.071579 
	C733.386108,251.414322 732.544800,252.930527 730.660706,254.765915 
	C752.306335,254.765915 772.064575,254.765915 791.822815,254.765915 
	C792.088501,254.375702 792.354187,253.985474 792.619873,253.595261 
	C791.592896,252.726318 790.698486,251.431580 789.515625,251.063095 
	C784.721375,249.569641 779.862610,248.013733 779.091614,242.209335 
	C778.357544,236.683441 778.335083,231.063049 777.999695,224.489426 
M757.248413,90.263145 
	C742.726746,94.730865 738.771240,112.802040 750.871094,122.490631 
	C756.394165,126.913132 766.323914,127.487343 772.644104,122.685555 
	C779.203918,117.701698 781.982361,108.945869 778.923279,101.723434 
	C774.981934,92.418076 767.867065,88.863266 757.248413,90.263145 
z"/>
<path fill="#21337F" opacity="1.000000" stroke="none" 
	d="
M495.229980,230.728333 
	C484.631226,218.928955 478.157990,205.480667 476.061829,190.150848 
	C473.889008,174.260803 473.944702,158.519318 479.877258,143.148529 
	C485.737427,127.965256 494.969940,115.681595 508.040436,105.913803 
	C526.542114,92.087181 547.680176,88.435989 569.771484,90.192833 
	C595.334045,92.225723 616.258179,104.077080 631.217529,124.981560 
	C639.403442,136.420563 643.607178,149.620667 645.202087,163.901352 
	C647.229431,182.053482 644.465515,199.092255 635.901245,214.962296 
	C624.114624,236.803619 606.497070,251.468277 581.217712,256.334503 
	C590.711548,282.714203 610.785217,290.563660 636.834229,287.726685 
	C636.834229,290.434692 636.834229,292.384338 636.834229,295.629761 
	C625.301208,296.746582 613.603210,299.259796 602.048279,298.718719 
	C575.802307,297.489655 554.653442,286.528290 542.599121,261.921417 
	C540.459839,257.554413 537.761719,255.649994 533.147949,254.432938 
	C518.277283,250.510208 505.634033,242.657913 495.229980,230.728333 
M524.045837,126.798256 
	C519.621826,138.815979 517.827087,151.392014 517.111389,164.035995 
	C516.124023,181.480515 517.060181,198.977203 522.191223,215.741592 
	C527.191895,232.080200 535.191467,246.217682 554.360779,249.829056 
	C564.694092,251.775803 581.410339,246.278793 587.601379,237.864090 
	C597.876282,223.898560 602.301208,207.758865 602.764526,190.884018 
	C603.198486,175.080139 602.235901,159.171555 600.828674,143.403580 
	C599.607178,129.716537 594.520752,117.509682 584.240906,107.489807 
	C575.277100,98.752762 557.454163,96.203316 546.615967,101.115089 
	C535.503296,106.151276 529.219543,115.464333 524.045837,126.798256 
z"/>
<path fill="#21337F" opacity="1.000000" stroke="none" 
	d="
M427.999634,238.630875 
	C428.364014,245.979004 435.481659,250.842056 445.582642,251.008545 
	C447.888245,251.046555 451.098419,250.132584 449.645081,254.768341 
	C421.946045,254.768341 394.196686,254.768341 366.447296,254.768341 
	C366.155548,254.392090 365.863800,254.015839 365.572052,253.639587 
	C366.631622,252.760254 367.581482,251.371323 368.775024,251.114487 
	C370.848328,250.668304 373.179199,251.335800 375.214355,250.809937 
	C383.888275,248.568771 389.081909,246.437668 389.043610,233.495438 
	C388.925293,193.514816 388.824738,153.532318 389.120270,113.553535 
	C389.196991,103.175240 382.439545,97.355339 373.498596,97.975586 
	C371.199219,98.135086 368.879425,97.999542 365.559753,96.846977 
	C366.574036,95.898849 367.583710,94.128334 368.603271,94.122620 
	C395.563538,93.971489 422.524841,94.002579 449.734192,94.002579 
	C449.734192,95.381622 449.734192,96.440514 449.734192,97.480110 
	C445.165100,97.996773 440.563019,98.159660 436.132385,99.116501 
	C431.494568,100.118080 429.075134,104.035080 428.162750,108.231049 
	C427.194458,112.684380 427.055939,117.379288 427.044922,121.969864 
	C426.961945,156.619843 426.966522,191.270172 427.043640,225.920181 
	C427.052765,230.011414 427.666260,234.101318 427.999634,238.630875 
z"/>
<path fill="#21337F" opacity="1.000000" stroke="none" 
	d="
M857.174133,151.101227 
	C850.256775,151.012466 843.750610,151.226990 837.264526,150.958069 
	C817.881531,150.154465 814.593018,158.649445 810.197632,172.365067 
	C809.169312,175.573776 808.226562,176.432205 805.153320,175.672455 
	C805.153320,165.269272 805.153320,154.973557 805.153320,144.338806 
	C836.380249,144.338806 867.570251,144.338806 900.119141,144.338806 
	C879.149109,179.111008 858.579041,213.219940 837.533691,248.117004 
	C850.434875,247.502136 862.656372,247.908173 874.283508,243.256775 
	C883.453125,239.588455 888.517761,232.249374 892.016602,223.479782 
	C892.968445,221.093796 894.109253,218.783157 895.163330,216.437943 
	C895.828613,216.691559 896.493835,216.945175 897.159058,217.198792 
	C896.073425,229.550705 894.987793,241.902634 893.869446,254.626175 
	C861.687622,254.626175 829.481201,254.626175 796.218262,254.626175 
	C799.212463,249.408936 801.898376,244.527756 804.771118,239.759048 
	C815.966797,221.174225 827.215942,202.621567 838.456726,184.063919 
	C844.665405,173.813858 850.906982,163.583664 857.092041,153.319397 
	C857.451416,152.723007 857.435730,151.900696 857.174133,151.101227 
z"/>
<path fill="#21337F" opacity="1.000000" stroke="none" 
	d="
M710.999695,188.000000 
	C710.999695,204.825211 710.998718,221.150406 711.000061,237.475616 
	C711.000732,246.005875 713.115662,248.671555 721.297668,251.055969 
	C722.506775,251.408340 723.411438,252.805679 724.456970,253.719559 
	C724.161621,254.090759 723.866333,254.461975 723.571045,254.833191 
	C703.948120,254.833191 684.325195,254.833191 663.734314,254.833191 
	C664.358032,253.382065 664.782593,251.218903 665.384644,251.168320 
	C676.233459,250.256927 677.863831,242.323959 677.906799,234.040085 
	C678.114014,194.061081 678.026062,154.080338 677.946594,114.100403 
	C677.940796,111.192932 677.388428,108.234840 676.708191,105.391670 
	C675.465637,100.198280 672.116394,98.220657 664.455078,97.835022 
	C663.512512,95.396957 663.597473,93.934265 666.983643,93.958000 
	C681.452820,94.059425 695.923157,94.001183 710.999695,94.001183 
	C710.999695,125.337883 710.999695,156.418945 710.999695,188.000000 
z"/>
<path fill="#21337F" opacity="1.000000" stroke="none" 
	d="
M914.998169,220.904175 
	C909.930054,197.553894 912.159973,169.060120 933.131409,151.421432 
	C940.210999,145.466919 948.320374,142.091171 957.744263,140.847397 
	C981.367859,137.729492 998.290222,155.931686 1002.904907,176.322968 
	C1004.231018,182.182800 1004.703125,188.235916 1005.648315,194.763855 
	C984.800476,194.763855 964.727295,194.763855 943.974976,194.763855 
	C944.846680,204.093552 945.902710,212.784897 949.976868,220.846024 
	C954.033203,228.871979 958.889038,236.558563 968.099854,238.908737 
	C979.859192,241.909180 986.333923,240.452850 994.604126,230.898285 
	C996.949890,228.188278 999.249207,225.438080 1001.794617,222.441833 
	C1002.596497,222.896057 1003.771362,223.561569 1005.222229,224.383377 
	C1004.747314,225.305725 1004.389465,225.977036 1004.052551,226.658691 
	C998.144165,238.614700 990.632690,249.162811 977.859741,254.572922 
	C958.936768,262.587891 932.543701,257.483124 921.512573,236.888962 
	C918.870178,231.955856 917.149292,226.529099 914.998169,220.904175 
M944.000000,175.697128 
	C944.000000,179.764648 944.000000,183.832184 944.000000,187.635223 
	C955.126038,187.635223 965.500916,187.635223 975.999878,187.635223 
	C975.999878,181.630936 976.518555,175.927887 975.848938,170.367950 
	C975.222961,165.170624 974.156982,159.711807 971.833740,155.098877 
	C967.009705,145.520721 955.281006,145.180405 950.362366,154.659103 
	C947.174011,160.803436 946.049377,168.018677 944.000000,175.697128 
z"/>
<path fill="#21337F" opacity="1.000000" stroke="none" 
	d="
M1065.720947,230.420166 
	C1065.959717,233.837769 1065.979126,236.835419 1066.000122,239.833069 
	C1066.041138,245.699585 1068.588257,248.385880 1074.390381,250.162628 
	C1076.390991,250.775238 1081.166260,249.378036 1079.705811,254.799911 
	C1059.915894,254.799911 1040.147461,254.799911 1018.621460,254.799911 
	C1020.390381,252.897003 1021.113464,251.473282 1022.230408,251.019714 
	C1031.114990,247.412354 1032.912842,245.063919 1032.963013,234.610931 
	C1033.079590,210.293137 1033.314697,185.968277 1032.840454,161.659164 
	C1032.658569,152.336502 1030.678101,148.748108 1020.218933,147.625046 
	C1020.218933,146.565567 1020.218933,145.483780 1020.218933,144.224731 
	C1035.090820,144.224731 1049.835571,144.224731 1065.203613,144.224731 
	C1065.203613,152.249100 1065.203613,160.065552 1065.203613,168.723724 
	C1070.549683,162.129166 1075.016724,156.188187 1079.943359,150.656555 
	C1085.443359,144.481155 1092.757446,141.337708 1100.809448,140.104950 
	C1108.946167,138.859238 1118.075562,149.656128 1115.809814,158.164612 
	C1114.725830,162.235535 1112.974243,166.516571 1110.312500,169.683273 
	C1106.820801,173.837204 1096.757202,172.697815 1092.624023,169.121445 
	C1091.522827,168.168655 1090.254639,167.410522 1089.077271,166.543793 
	C1082.853516,161.961929 1076.889404,163.055695 1073.069824,169.845413 
	C1068.634644,177.729126 1066.123291,186.198563 1065.963501,195.354462 
	C1065.790283,205.277359 1065.303345,215.194473 1065.029663,225.116226 
	C1064.984985,226.738647 1065.334961,228.371964 1065.720947,230.420166 
z"/>
<path fill="#21337F" opacity="1.000000" stroke="none" 
	d="
M777.999695,224.986816 
	C778.335083,231.063049 778.357544,236.683441 779.091614,242.209335 
	C779.862610,248.013733 784.721375,249.569641 789.515625,251.063095 
	C790.698486,251.431580 791.592896,252.726318 792.619873,253.595261 
	C792.354187,253.985474 792.088501,254.375702 791.822815,254.765915 
	C772.064575,254.765915 752.306335,254.765915 730.660706,254.765915 
	C732.544800,252.930527 733.386108,251.414322 734.567749,251.071579 
	C742.998718,248.626160 744.999939,246.080780 745.000122,237.126312 
	C745.000610,211.822388 745.002075,186.518478 744.999329,161.214554 
	C744.998291,152.288879 741.493835,148.519165 730.769348,147.663284 
	C732.561890,145.926804 733.544434,144.139694 734.549622,144.126892 
	C748.837646,143.944672 763.128784,144.002731 777.999695,144.002731 
	C777.999695,171.018158 777.999695,197.753784 777.999695,224.986816 
z"/>
<path fill="#B88319" opacity="1.000000" stroke="none" 
	d="
M114.124657,257.736145 
	C126.703552,271.628967 141.109818,283.102631 158.072510,291.276550 
	C213.038254,317.763245 278.237885,304.139038 318.049225,257.792633 
	C318.482788,257.287933 318.908600,256.776672 320.013245,256.169098 
	C322.463684,257.057709 324.238922,258.045654 326.014130,259.033630 
	C310.250488,278.861359 290.532898,293.321289 266.964447,302.566956 
	C213.109039,323.693939 149.732788,308.415497 111.439781,264.948761 
	C110.206490,263.548828 109.949326,261.288971 109.879005,259.186523 
	C111.722145,258.540771 112.923401,258.138458 114.124657,257.736145 
z"/>
<path fill="#21337F" opacity="1.000000" stroke="none" 
	d="
M757.663086,90.146332 
	C767.867065,88.863266 774.981934,92.418076 778.923279,101.723434 
	C781.982361,108.945869 779.203918,117.701698 772.644104,122.685555 
	C766.323914,127.487343 756.394165,126.913132 750.871094,122.490631 
	C738.771240,112.802040 742.726746,94.730865 757.663086,90.146332 
z"/>
<path fill="#D8B14E" opacity="1.000000" stroke="none" 
	d="
M180.024933,210.009384 
	C174.639557,207.674606 169.254196,205.339813 163.052948,203.010406 
	C159.807022,204.337067 157.376968,205.658371 154.946899,206.979675 
	C149.539734,203.596268 143.814407,202.888046 137.310242,204.575317 
	C135.244568,203.154846 133.629944,202.094833 132.015320,201.034821 
	C132.072205,200.860840 132.129089,200.686859 132.072510,200.262650 
	C131.959061,200.012421 131.930405,200.043045 131.930405,200.043045 
	C138.105286,199.291504 144.378464,199.224518 149.758896,195.118195 
	C151.138962,194.064957 153.840286,194.742920 156.338776,194.397644 
	C156.742950,194.169739 156.665054,194.097488 156.665054,194.097488 
	C157.206604,194.738297 157.635361,195.762039 158.307358,195.959930 
	C164.212463,197.698944 170.155685,199.310455 176.104996,200.894440 
	C176.671539,201.045273 177.356506,200.751251 178.412323,200.720535 
	C179.054520,200.896988 179.270874,201.016663 179.487228,201.136337 
	C179.184723,200.814865 178.882233,200.493378 178.579742,200.171890 
	C178.518112,198.387573 178.456497,196.603271 178.970856,194.401260 
	C183.200684,193.706100 186.854507,193.428635 190.508347,193.151154 
	C190.611938,195.122192 191.031113,197.141998 190.735916,199.051361 
	C190.398758,201.232162 189.425781,203.314651 188.464310,206.247604 
	C190.563889,205.883438 193.298401,205.331802 196.056885,204.956253 
	C198.096451,204.678589 200.165222,204.583939 202.224762,204.494431 
	C203.884277,204.422302 205.549438,204.479813 207.214035,204.106125 
	C202.851685,201.272812 205.581207,197.176208 205.400269,193.449036 
	C209.606018,193.000565 213.283875,193.001205 216.961731,193.001846 
	C216.828537,194.221497 216.695328,195.441147 216.366608,198.451050 
	C221.538544,193.617981 225.767761,189.665878 230.496185,185.359360 
	C234.291840,185.341400 237.588287,185.677872 240.884720,186.014343 
	C240.498672,187.124023 240.112625,188.233719 239.862427,189.669250 
	C239.998291,189.995117 240.039902,189.979340 239.620880,189.863724 
	C237.048874,191.406525 232.713379,188.255737 231.983963,193.010681 
	C231.994186,192.992966 232.029053,192.971558 231.712006,192.968292 
	C231.254257,193.320450 231.113525,193.675873 230.983749,194.012939 
	C230.994705,193.994553 231.031586,193.972855 230.700928,193.951004 
	C230.238586,194.297195 230.106888,194.665253 229.984161,195.013870 
	C229.993103,194.994431 230.023804,194.964676 230.023804,194.964676 
	C225.070572,198.703400 220.117340,202.442139 214.565002,206.480499 
	C210.727905,209.349976 205.048965,208.406464 203.801788,213.841766 
	C200.628235,215.638718 198.003357,215.447418 194.687607,213.259750 
	C192.025040,211.503021 188.151550,211.581619 184.420807,210.909668 
	C184.026215,210.973541 184.039688,211.021088 183.856384,210.680389 
	C182.433578,210.224457 181.194046,210.109238 179.975128,209.985046 
	C179.995712,209.976089 180.024933,210.009384 180.024933,210.009384 
z"/>
<path fill="#BE8C24" opacity="1.000000" stroke="none" 
	d="
M174.633224,34.805626 
	C191.964417,28.544434 209.903900,27.240149 228.083542,28.655848 
	C235.148941,29.206051 242.144913,30.647844 249.010559,31.659632 
	C249.010559,34.547546 249.010559,36.648624 249.010559,39.251225 
	C228.816284,34.564087 208.860764,34.293068 188.340530,37.636566 
	C185.998917,36.806057 184.187714,36.342785 182.352249,36.015785 
	C179.788727,35.559090 177.207108,35.204121 174.633224,34.805626 
z"/>
<path fill="#E3C15F" opacity="1.000000" stroke="none" 
	d="
M241.068298,185.707794 
	C237.588287,185.677872 234.291840,185.341400 230.561646,185.013626 
	C230.766388,183.247528 231.404907,181.472748 232.014618,179.342102 
	C231.985825,178.986237 231.961273,179.017456 232.391449,179.154404 
	C235.561630,178.856567 238.301620,178.421799 241.020004,177.991394 
	C240.998383,177.995743 240.975952,178.033737 241.277069,177.995972 
	C241.728500,177.629913 241.878830,177.301636 242.010620,176.980988 
	C241.992111,176.988632 241.967896,177.020477 241.967896,177.020477 
	C247.020706,176.009384 252.073502,174.998291 257.922852,173.918610 
	C262.810333,172.565643 266.901276,171.281265 270.992188,169.996887 
	C273.487854,167.760025 275.886444,167.842590 279.058655,169.147263 
	C281.666809,170.219955 284.937866,169.680664 288.122986,169.124146 
	C291.249054,167.917770 294.167297,167.443054 297.085541,166.968353 
	C297.869293,169.352859 298.869415,171.831161 294.847015,172.132187 
	C295.117798,172.562546 295.388580,172.992905 295.683594,173.931396 
	C294.811249,175.538345 293.914673,176.637207 292.677155,177.670441 
	C290.544403,177.088028 288.752594,176.571213 286.960785,176.054398 
	C283.960236,175.621536 281.331177,175.657349 278.832367,178.187805 
	C277.748535,179.285355 274.959564,179.020401 272.991882,178.846069 
	C270.264374,178.604401 267.580994,177.864929 264.965515,178.201157 
	C266.597626,179.228989 268.229706,180.256821 269.391968,181.647064 
	C265.567139,181.353439 262.212158,180.697418 258.857208,180.041397 
	C252.508896,180.251831 246.380188,181.183533 241.068298,185.707794 
z"/>
<path fill="#E1BD5A" opacity="1.000000" stroke="none" 
	d="
M293.018097,177.736053 
	C293.914673,176.637207 294.811249,175.538345 295.880615,174.168091 
	C301.025787,176.354675 305.926422,178.975281 310.996460,181.212067 
	C314.235901,182.641251 317.608246,183.215118 320.702911,180.312012 
	C321.539917,179.526794 323.490723,178.921051 324.380188,179.356522 
	C332.645050,183.402939 337.128265,177.013626 342.483459,173.037766 
	C343.139801,172.550461 343.639130,171.851730 344.849121,171.127228 
	C346.697357,171.726562 347.907654,172.449631 349.117981,173.172714 
	C344.943604,176.813354 340.914429,180.641388 336.543945,184.029007 
	C333.614227,186.299881 330.248138,188.033585 326.976227,189.822815 
	C325.876831,190.424026 324.278107,191.012344 323.227020,190.658310 
	C315.328705,187.997971 307.510193,185.100632 299.217224,181.789963 
	C296.851166,180.113693 294.934631,178.924866 293.018097,177.736053 
z"/>
<path fill="#FBEBA1" opacity="1.000000" stroke="none" 
	d="
M190.665100,71.930305 
	C190.725540,80.996208 190.785995,90.062103 190.331451,99.575058 
	C185.956970,100.030167 182.097458,100.038208 178.237946,100.046257 
	C178.191010,90.989761 178.144058,81.933266 178.607452,72.427162 
	C182.966873,71.961807 186.815994,71.946053 190.665100,71.930305 
z"/>
<path fill="#BD8A1E" opacity="1.000000" stroke="none" 
	d="
M216.939819,243.006729 
	C217.019333,249.804276 216.993790,256.605255 217.215103,263.398193 
	C217.364014,267.967957 214.181259,267.984192 211.198883,267.955078 
	C208.145081,267.925323 204.603134,268.287170 204.743088,263.337860 
	C204.925919,256.872253 204.840973,250.399063 205.408783,243.465912 
	C209.610825,243.004044 213.275314,243.005386 216.939819,243.006729 
z"/>
<path fill="#BC891D" opacity="1.000000" stroke="none" 
	d="
M190.468781,245.055054 
	C190.569778,251.182327 190.697937,257.309326 190.763062,263.436951 
	C190.813904,268.221283 187.183411,267.958679 184.093155,267.954193 
	C181.110489,267.949860 177.923294,267.904877 178.062057,263.364197 
	C178.239273,257.565247 178.158173,251.758438 178.710754,245.490341 
	C182.978317,245.035477 186.723541,245.045258 190.468781,245.055054 
z"/>
<path fill="#FBE68A" opacity="1.000000" stroke="none" 
	d="
M190.744354,71.473236 
	C186.815994,71.946053 182.966873,71.961807 178.680542,71.960381 
	C178.174622,66.158485 178.214050,60.369808 178.002335,54.590328 
	C177.839371,50.141098 180.770859,49.962730 183.909180,49.925800 
	C187.310699,49.885769 190.888687,49.693626 190.898315,54.646580 
	C190.908920,60.103043 190.851440,65.559639 190.744354,71.473236 
z"/>
<path fill="#E7C661" opacity="1.000000" stroke="none" 
	d="
M242.019867,155.997284 
	C242.020157,162.691971 242.020432,169.386642 241.994293,176.550903 
	C241.967896,177.020477 241.992111,176.988632 241.705948,177.009827 
	C241.271835,177.365265 241.123886,177.699509 240.975952,178.033737 
	C240.975952,178.033737 240.998383,177.995743 240.585419,177.879608 
	C237.435394,178.181473 234.698334,178.599457 231.961273,179.017456 
	C231.961273,179.017456 231.985825,178.986237 232.002518,178.975708 
	C231.330139,177.778183 230.081146,176.607437 230.046158,175.401459 
	C229.867767,169.254425 230.003281,163.098282 230.533691,156.475311 
	C234.698929,156.002625 238.359390,155.999954 242.019867,155.997284 
z"/>
<path fill="#FDEFA2" opacity="1.000000" stroke="none" 
	d="
M269.782623,75.960037 
	C269.825287,82.338554 269.867950,88.717079 269.409424,95.553154 
	C264.986786,96.014435 261.065399,96.018166 257.143982,96.021889 
	C257.110321,89.649475 257.076660,83.277054 257.543335,76.446632 
	C261.956665,75.979095 265.869629,75.969566 269.782623,75.960037 
z"/>
<path fill="#BC891D" opacity="1.000000" stroke="none" 
	d="
M164.051071,245.995178 
	C164.140610,251.791031 164.192184,257.587799 164.331421,263.382446 
	C164.447968,268.232452 160.907593,267.972900 157.799316,267.960419 
	C154.791656,267.948334 151.649353,267.860443 151.800217,263.339966 
	C151.982574,257.875092 151.892792,252.401123 152.461273,246.469467 
	C156.684875,246.003632 160.367966,245.999405 164.051071,245.995178 
z"/>
<path fill="#DBB654" opacity="1.000000" stroke="none" 
	d="
M258.711487,180.399094 
	C262.212158,180.697418 265.567139,181.353439 269.311523,182.016510 
	C269.758789,188.053665 269.816559,194.083801 269.341248,200.566681 
	C264.945587,201.022980 261.082977,201.026520 257.220398,201.030060 
	C257.152802,195.387238 257.000366,189.743088 257.089539,184.102753 
	C257.107300,182.979919 258.049713,181.871735 258.711487,180.399094 
z"/>
<path fill="#BC891D" opacity="1.000000" stroke="none" 
	d="
M297.063385,246.993805 
	C297.154602,252.455093 297.201111,257.917603 297.350403,263.377289 
	C297.483551,268.247528 293.914032,267.944031 290.827087,267.959229 
	C287.810730,267.974091 284.689880,267.876587 284.864807,263.341339 
	C285.062653,258.212219 284.948364,253.071030 285.496216,247.469788 
	C289.702881,247.000916 293.383148,246.997360 297.063385,246.993805 
z"/>
<path fill="#C7982D" opacity="1.000000" stroke="none" 
	d="
M190.594147,244.597992 
	C186.723541,245.045258 182.978317,245.035477 178.799622,245.032593 
	C178.302551,239.018448 178.238968,232.997391 178.686737,226.501511 
	C182.972610,226.044785 186.747147,226.062897 190.521683,226.080994 
	C190.587631,232.100983 190.653580,238.120972 190.594147,244.597992 
z"/>
<path fill="#DCB64F" opacity="1.000000" stroke="none" 
	d="
M296.527832,182.053452 
	C296.763306,187.724121 296.998810,193.394791 296.685486,199.530823 
	C292.460999,200.002075 288.785248,200.007950 285.109528,200.013809 
	C285.060730,193.474625 284.971558,186.935181 285.015900,180.396622 
	C285.021210,179.608505 285.749298,178.825287 286.827454,178.252304 
	C290.517609,179.661026 293.522736,180.857239 296.527832,182.053452 
z"/>
<path fill="#BC881C" opacity="1.000000" stroke="none" 
	d="
M139.646088,249.029556 
	C139.733063,253.828720 139.748215,258.630585 139.927734,263.426300 
	C140.098251,267.981842 136.789719,267.926697 133.845581,267.949860 
	C130.733215,267.974304 127.185982,268.138458 127.231323,263.370117 
	C127.273872,258.896790 127.294563,254.423218 127.854034,249.486099 
	C132.137497,249.024811 135.891785,249.027176 139.646088,249.029556 
z"/>
<path fill="#D3AA44" opacity="1.000000" stroke="none" 
	d="
M131.607697,201.023712 
	C133.629944,202.094833 135.244568,203.154846 136.900635,204.545593 
	C136.942062,204.876312 137.046280,204.970718 136.656799,205.010773 
	C133.186188,205.797363 130.105026,206.543930 127.023880,207.290497 
	C125.903275,207.552811 124.776009,207.790009 123.664093,208.085068 
	C122.713692,208.337265 121.539574,208.392151 120.883652,208.992416 
	C118.513275,211.161713 116.139885,215.572266 114.096504,215.392761 
	C109.675758,215.004456 107.929207,217.368134 105.246841,219.713928 
	C103.452339,219.002243 102.123459,218.461456 100.794586,217.920654 
	C103.617065,213.925583 106.386726,209.891083 109.311272,205.972168 
	C109.830864,205.275909 110.950645,204.839020 111.867447,204.657974 
	C118.300758,203.387665 124.753532,202.215881 131.607697,201.023712 
z"/>
<path fill="#F6DB77" opacity="1.000000" stroke="none" 
	d="
M257.210541,139.021179 
	C257.343628,132.942001 257.476715,126.862823 258.143982,120.376244 
	C262.359741,119.992828 266.041351,120.016815 269.722961,120.040802 
	C269.771729,126.060875 269.820465,132.080933 269.348206,138.556763 
	C264.954956,139.015396 261.082764,139.018295 257.210541,139.021179 
z"/>
<path fill="#F8DE7C" opacity="1.000000" stroke="none" 
	d="
M152.039856,134.005066 
	C152.004028,128.544861 152.046753,123.082672 151.908890,117.625046 
	C151.786621,112.785660 155.182800,113.083908 158.362289,112.973351 
	C161.639359,112.859413 164.338211,113.267647 164.168930,117.660431 
	C163.984207,122.453415 164.139404,127.259514 163.644455,132.528534 
	C159.441605,133.333145 155.740738,133.669098 152.039856,134.005066 
z"/>
<path fill="#FEF0A0" opacity="1.000000" stroke="none" 
	d="
M216.968277,77.995583 
	C216.992157,84.353966 217.016037,90.712341 216.547073,97.536285 
	C212.373978,98.002060 208.693741,98.002266 205.013489,98.002464 
	C204.992920,91.646133 204.972366,85.289810 205.441986,78.466354 
	C209.610886,77.998016 213.289581,77.996796 216.968277,77.995583 
z"/>
<path fill="#D3A93F" opacity="1.000000" stroke="none" 
	d="
M257.149780,201.491302 
	C261.082977,201.026520 264.945587,201.022980 269.246643,201.028198 
	C269.742950,206.724716 269.800751,212.412491 269.327515,218.557358 
	C264.943420,219.015808 261.090393,219.017166 257.237335,219.018539 
	C257.184601,213.329880 257.131897,207.641205 257.149780,201.491302 
z"/>
<path fill="#E7C661" opacity="1.000000" stroke="none" 
	d="
M127.495064,171.019760 
	C127.419235,165.343765 127.343399,159.667786 127.778847,153.511780 
	C132.093033,153.041855 135.895935,153.051926 139.698837,153.061996 
	C139.752411,158.741852 139.805969,164.421692 139.329391,170.556793 
	C135.031189,171.014618 131.263123,171.017197 127.495064,171.019760 
z"/>
<path fill="#D8B14E" opacity="1.000000" stroke="none" 
	d="
M83.712914,192.044373 
	C85.653534,199.402588 88.064056,206.680847 89.335716,214.152908 
	C89.967766,217.866699 88.509895,221.936172 87.161369,225.824142 
	C81.698685,215.255264 78.370392,204.342117 77.366714,192.430634 
	C79.767532,192.016800 81.740227,192.030579 83.712914,192.044373 
z"/>
<path fill="#BC881C" opacity="1.000000" stroke="none" 
	d="
M268.985229,265.953308 
	C265.771667,266.372986 262.423676,267.472900 259.410706,266.877472 
	C258.205719,266.639374 257.300415,262.713562 257.040039,260.379181 
	C256.656311,256.938538 256.971497,253.419983 257.514160,249.469482 
	C260.201050,249.003418 262.380768,249.179550 264.520355,248.961517 
	C268.030640,248.603760 269.251892,250.001556 269.041809,253.485550 
	C268.792023,257.627533 268.984406,261.796234 268.985229,265.953308 
z"/>
<path fill="#EBCD6B" opacity="1.000000" stroke="none" 
	d="
M190.552414,147.036682 
	C190.645996,161.027130 190.739578,175.017578 190.512054,189.133545 
	C190.099609,186.189529 190.008301,183.119995 189.939209,179.579605 
	C189.969421,177.277939 189.985016,175.447144 189.984146,173.616333 
	C189.978653,162.163361 189.977432,162.163361 178.671722,161.934006 
	C178.498016,157.267334 178.324310,152.600662 178.665070,147.472137 
	C182.970505,147.019089 186.761459,147.027878 190.552414,147.036682 
z"/>
<path fill="#F8DE7C" opacity="1.000000" stroke="none" 
	d="
M190.614929,115.063080 
	C190.671600,120.413086 190.728271,125.763092 190.255859,131.563034 
	C185.918091,132.016769 182.109406,132.020569 178.300720,132.024384 
	C178.247925,126.672058 178.195129,121.319740 178.643463,115.493004 
	C182.968033,115.033424 186.791489,115.048256 190.614929,115.063080 
z"/>
<path fill="#CB9D32" opacity="1.000000" stroke="none" 
	d="
M139.683243,217.061020 
	C139.740311,222.407593 139.797379,227.754181 139.316956,233.556946 
	C135.030060,234.013290 131.280655,234.013443 127.531242,234.013596 
	C127.456902,228.673859 127.382553,223.334137 127.819229,217.514648 
	C132.114594,217.043594 135.898911,217.052307 139.683243,217.061020 
z"/>
<path fill="#E9C964" opacity="1.000000" stroke="none" 
	d="
M257.119659,171.002518 
	C257.106537,165.648514 257.093445,160.294525 257.593323,154.474243 
	C261.967255,154.013351 265.828278,154.018738 269.689270,154.024124 
	C269.684052,158.998840 269.678833,163.973572 269.141022,169.423828 
	C265.072968,170.557205 261.537476,171.215042 257.895447,171.689972 
	C257.613831,171.275177 257.390778,171.107010 257.119659,171.002518 
z"/>
<path fill="#BC891D" opacity="1.000000" stroke="none" 
	d="
M242.020660,248.998108 
	C242.102554,253.306473 242.274719,257.615570 242.239288,261.922974 
	C242.208008,265.722656 239.946503,267.817383 236.332932,267.934723 
	C232.428284,268.061554 230.085678,265.929810 229.995193,261.879456 
	C229.906281,257.899414 229.994873,253.915390 230.525757,249.468506 
	C234.704193,249.001968 238.362427,249.000046 242.020660,248.998108 
z"/>
<path fill="#F1D46F" opacity="1.000000" stroke="none" 
	d="
M151.993393,134.470764 
	C155.740738,133.669098 159.441605,133.333145 163.595184,132.994415 
	C164.085464,138.682373 164.123062,144.373108 163.647568,150.531052 
	C159.441101,151.333603 155.747726,151.668961 152.054367,152.004318 
	C152.018555,146.315033 151.982742,140.625763 151.993393,134.470764 
z"/>
<path fill="#CB9D32" opacity="1.000000" stroke="none" 
	d="
M257.159241,219.478531 
	C261.090393,219.017166 264.943420,219.015808 269.234802,219.017807 
	C269.733154,224.047562 269.793152,229.073944 269.320679,234.557251 
	C264.901733,235.013031 261.015320,235.011917 257.128906,235.010818 
	C257.112976,229.986725 257.097046,224.962616 257.159241,219.478531 
z"/>
<path fill="#D3A93F" opacity="1.000000" stroke="none" 
	d="
M285.046722,200.476913 
	C288.785248,200.007950 292.460999,200.002075 296.601929,199.992401 
	C297.126984,205.349518 297.186890,210.710464 296.692017,216.534515 
	C292.462463,217.001663 288.787659,217.005692 285.112885,217.009705 
	C285.069885,211.653137 285.026917,206.296585 285.046722,200.476913 
z"/>
<path fill="#C7982D" opacity="1.000000" stroke="none" 
	d="
M217.033051,242.546448 
	C213.275314,243.005386 209.610825,243.004044 205.488602,243.003204 
	C204.978027,237.644821 204.925171,232.285919 205.405762,226.463684 
	C209.608490,226.001938 213.277786,226.003540 216.947067,226.005157 
	C217.006805,231.365494 217.066544,236.725815 217.033051,242.546448 
z"/>
<path fill="#E6C35D" opacity="1.000000" stroke="none" 
	d="
M216.952301,161.004852 
	C216.999741,166.363190 217.047195,171.721542 216.565247,177.541260 
	C212.365479,178.002747 208.695084,178.002869 205.024704,178.002991 
	C204.986908,172.645935 204.949112,167.288879 205.424927,161.466339 
	C209.609787,161.002197 213.281036,161.003525 216.952301,161.004852 
z"/>
<path fill="#F4D773" opacity="1.000000" stroke="none" 
	d="
M216.960587,128.005035 
	C216.998611,133.361618 217.036636,138.718216 216.558563,144.538086 
	C212.368088,145.001419 208.693695,145.001465 205.019302,145.001511 
	C204.989792,139.645691 204.960281,134.289871 205.432404,128.467316 
	C209.609558,128.002060 213.285080,128.003540 216.960587,128.005035 
z"/>
<path fill="#F6DB77" opacity="1.000000" stroke="none" 
	d="
M242.025497,122.996506 
	C242.060333,128.352661 242.095184,133.708832 241.614838,139.531555 
	C237.444046,140.003876 233.788467,140.009628 230.132874,140.015381 
	C230.098145,134.658188 230.063400,129.300995 230.525970,123.473831 
	C234.690689,123.001419 238.358093,122.998962 242.025497,122.996506 
z"/>
<path fill="#C39226" opacity="1.000000" stroke="none" 
	d="
M257.060486,235.470535 
	C261.015320,235.011917 264.901733,235.013031 269.227264,235.016357 
	C269.645508,245.142517 269.624664,255.266479 269.294556,265.671875 
	C268.984406,261.796234 268.792023,257.627533 269.041809,253.485550 
	C269.251892,250.001556 268.030640,248.603760 264.520355,248.961517 
	C262.380768,249.179550 260.201050,249.003418 257.585205,249.007111 
	C257.084717,244.650024 257.038391,240.290131 257.060486,235.470535 
z"/>
<path fill="#E6C35D" opacity="1.000000" stroke="none" 
	d="
M178.618164,162.405334 
	C189.977432,162.163361 189.978653,162.163361 189.984146,173.616333 
	C189.985016,175.447144 189.969421,177.277939 189.486908,179.560699 
	C185.551834,179.985397 182.091263,179.958160 178.630707,179.930923 
	C178.608673,174.246170 178.586639,168.561401 178.618164,162.405334 
z"/>
<path fill="#F2D572" opacity="1.000000" stroke="none" 
	d="
M178.218857,132.482819 
	C182.109406,132.020569 185.918091,132.016769 190.149445,132.020172 
	C190.643265,136.725174 190.714417,141.422974 190.669006,146.578735 
	C186.761459,147.027878 182.970505,147.019089 178.746231,147.017685 
	C178.254272,142.330475 178.195633,137.635880 178.218857,132.482819 
z"/>
<path fill="#FCE88E" opacity="1.000000" stroke="none" 
	d="
M190.723633,114.601357 
	C186.791489,115.048256 182.968033,115.033424 178.709564,115.033081 
	C178.220230,110.352936 178.165939,105.658302 178.174805,100.504959 
	C182.097458,100.038208 185.956970,100.030167 190.245514,100.039520 
	C190.727158,104.751160 190.779739,109.445396 190.723633,114.601357 
z"/>
<path fill="#C49428" opacity="1.000000" stroke="none" 
	d="
M127.423248,234.467880 
	C131.280655,234.013443 135.030060,234.013290 139.213806,234.014709 
	C139.717560,238.715576 139.787003,243.414902 139.751251,248.571884 
	C135.891785,249.027176 132.137497,249.024811 127.961563,249.034271 
	C127.465034,244.338135 127.390144,239.630142 127.423248,234.467880 
z"/>
<path fill="#EFD16B" opacity="1.000000" stroke="none" 
	d="
M269.777710,153.563171 
	C265.828278,154.018738 261.967255,154.013351 257.663635,154.012726 
	C257.172089,149.325714 257.123169,144.633942 257.142395,139.481674 
	C261.082764,139.018295 264.954956,139.015396 269.263336,139.019165 
	C269.755066,143.717941 269.810638,148.410065 269.777710,153.563171 
z"/>
<path fill="#E9C964" opacity="1.000000" stroke="none" 
	d="
M151.999451,152.468353 
	C155.747726,151.668961 159.441101,151.333603 163.589325,150.995804 
	C164.089478,156.018143 164.134781,161.042923 163.663086,166.533035 
	C159.451645,167.334198 155.757187,167.670059 152.062714,168.005905 
	C152.023315,162.981400 151.983932,157.956879 151.999451,152.468353 
z"/>
<path fill="#EDCE68" opacity="1.000000" stroke="none" 
	d="
M204.969635,145.466171 
	C208.693695,145.001465 212.368088,145.001419 216.498962,145.002838 
	C216.998962,150.028885 217.042496,155.053436 217.019165,160.541428 
	C213.281036,161.003525 209.609787,161.002197 205.480194,161.001511 
	C204.987915,155.978378 204.953949,150.954605 204.969635,145.466171 
z"/>
<path fill="#EFD16B" opacity="1.000000" stroke="none" 
	d="
M230.080048,140.478607 
	C233.788467,140.009628 237.444046,140.003876 241.561340,139.996475 
	C242.062515,145.019989 242.102005,150.045135 242.080688,155.533783 
	C238.359390,155.999954 234.698929,156.002625 230.588989,156.010651 
	C230.102112,150.991302 230.064667,145.966568 230.080048,140.478607 
z"/>
<path fill="#CC9F34" opacity="1.000000" stroke="none" 
	d="
M285.044495,217.471710 
	C288.787659,217.005692 292.462463,217.001663 296.602051,216.994827 
	C297.132568,222.019699 297.198303,227.047409 296.702271,232.536133 
	C292.464264,233.001389 288.788025,233.005600 285.111816,233.009796 
	C285.066589,227.984436 285.021362,222.959076 285.044495,217.471710 
z"/>
<path fill="#DCB64F" opacity="1.000000" stroke="none" 
	d="
M131.977692,200.004974 
	C130.590088,199.775879 129.183868,199.554214 127.290550,199.255768 
	C127.290550,194.419464 127.290550,189.679977 127.818924,184.477997 
	C132.118027,184.018936 135.888763,184.022339 139.659500,184.025757 
	C139.742249,185.170700 139.881287,186.314789 139.898773,187.460724 
	C140.035110,196.401932 140.027908,196.402039 132.040573,199.670868 
	C131.930405,200.043045 131.959061,200.012421 131.977692,200.004974 
z"/>
<path fill="#F9E07F" opacity="1.000000" stroke="none" 
	d="
M217.014465,127.540207 
	C213.285080,128.003540 209.609558,128.002060 205.475266,128.001404 
	C204.993515,122.979576 204.970566,117.956909 205.439697,112.467430 
	C209.609467,112.002922 213.287155,112.005226 216.964813,112.007538 
	C216.999329,117.030159 217.033844,122.052773 217.014465,127.540207 
z"/>
<path fill="#CB9D32" opacity="1.000000" stroke="none" 
	d="
M230.141052,236.011353 
	C230.098541,230.986404 230.056030,225.961472 230.519547,220.470398 
	C234.693069,220.335236 238.360580,220.666183 242.028107,220.997116 
	C242.092346,226.024429 242.156586,231.051727 241.713989,236.488800 
	C237.518433,236.602814 233.829727,236.307083 230.141052,236.011353 
z"/>
<path fill="#DEB953" opacity="1.000000" stroke="none" 
	d="
M157.097900,194.263565 
	C156.665054,194.097488 156.742950,194.169739 156.766190,194.183838 
	C149.058975,192.008636 152.615845,185.688965 152.403564,180.406403 
	C156.600952,179.593002 160.325867,179.294617 164.050797,178.996216 
	C164.050797,184.156738 164.050797,189.317261 164.050797,194.904251 
	C161.698212,194.733002 159.614487,194.581314 157.097900,194.263565 
z"/>
<path fill="#EED379" opacity="1.000000" stroke="none" 
	d="
M139.798706,152.601059 
	C135.895935,153.051926 132.093033,153.041855 127.867996,153.058487 
	C127.333275,150.300095 126.908234,147.480408 127.211342,144.741302 
	C127.435974,142.711319 128.207718,139.453384 129.437668,139.084839 
	C132.206177,138.255203 135.434296,138.691360 138.418732,139.064896 
	C139.054092,139.144394 139.819748,141.130386 139.883072,142.273651 
	C140.064743,145.552704 139.916916,148.849991 139.798706,152.601059 
z"/>
<path fill="#D0A43B" opacity="1.000000" stroke="none" 
	d="
M217.034729,225.543274 
	C213.277786,226.003540 209.608490,226.001938 205.480820,226.001190 
	C205.030396,222.298355 205.038376,218.594681 205.491760,214.297470 
	C208.958939,211.817627 211.980698,209.931320 215.002472,208.045013 
	C215.172150,207.985245 215.341827,207.925461 216.019135,207.756714 
	C216.717789,207.672836 216.908798,207.697922 217.099792,207.723007 
	C217.107330,213.509140 217.114853,219.295273 217.034729,225.543274 
z"/>
<path fill="#D1A94B" opacity="1.000000" stroke="none" 
	d="
M190.645508,225.626312 
	C186.747147,226.062897 182.972610,226.044785 178.762299,226.043152 
	C178.627701,220.791824 178.928864,215.524017 179.627472,210.132782 
	C180.024933,210.009384 179.995712,209.976089 180.158783,210.325439 
	C181.561127,210.790222 182.800400,210.905655 184.039688,211.021088 
	C184.039688,211.021088 184.026215,210.973541 184.005676,210.960312 
	C184.016327,211.109711 184.025925,211.406967 184.081772,211.415924 
	C192.859879,212.823898 190.937912,219.424377 190.645508,225.626312 
z"/>
<path fill="#FCE991" opacity="1.000000" stroke="none" 
	d="
M269.839417,75.501083 
	C265.869629,75.969566 261.956665,75.979095 257.596466,75.979080 
	C257.116150,71.612114 257.083038,67.254677 257.558014,62.442932 
	C261.958862,61.980679 265.851593,61.972740 269.744324,61.964802 
	C269.794952,66.323906 269.845581,70.683014 269.839417,75.501083 
z"/>
<path fill="#F9E182" opacity="1.000000" stroke="none" 
	d="
M269.810547,61.510750 
	C265.851593,61.972740 261.958862,61.980679 257.621216,61.980598 
	C257.135101,57.612511 257.093933,53.252441 257.568481,48.439274 
	C261.811493,48.016422 265.538788,48.046669 269.266052,48.076920 
	C269.469635,52.403511 269.673218,56.730106 269.810547,61.510750 
z"/>
<path fill="#DDB750" opacity="1.000000" stroke="none" 
	d="
M204.963577,178.465652 
	C208.695084,178.002869 212.365479,178.002747 216.492020,178.004517 
	C217.000046,182.696960 217.051926,187.387527 217.032776,192.539963 
	C213.283875,193.001205 209.606018,193.000565 205.468628,193.000336 
	C204.973541,188.309937 204.938004,183.619125 204.963577,178.465652 
z"/>
<path fill="#D9B24B" opacity="1.000000" stroke="none" 
	d="
M230.135101,206.013550 
	C230.123810,202.637543 230.112503,199.261536 230.062500,195.425110 
	C230.023804,194.964676 229.993103,194.994431 230.299622,195.011719 
	C230.747940,194.676956 230.889771,194.324905 231.031586,193.972855 
	C231.031586,193.972855 230.994705,193.994553 231.316971,194.038239 
	C231.769165,193.711807 231.899109,193.341675 232.029053,192.971558 
	C232.029053,192.971558 231.994186,192.992966 232.367157,193.096710 
	C235.173370,192.126755 237.606644,191.053055 240.039902,189.979340 
	C240.039902,189.979340 239.998291,189.995117 239.982391,190.010590 
	C240.707932,190.823730 242.042679,191.586349 242.092194,192.424896 
	C242.365189,197.046692 242.324310,201.687042 241.802734,206.612274 
	C237.521286,206.606857 233.828186,206.310211 230.135101,206.013550 
z"/>
<path fill="#F0D26E" opacity="1.000000" stroke="none" 
	d="
M285.101562,153.010941 
	C285.051880,149.522110 285.051392,146.031708 284.940308,142.544846 
	C284.796082,138.017838 288.041656,138.061035 291.069702,138.049149 
	C294.134552,138.037125 297.303772,138.112961 297.187531,142.590988 
	C297.105591,145.748093 297.173370,148.909088 296.651917,152.532822 
	C292.453583,153.001846 288.777557,153.006393 285.101562,153.010941 
z"/>
<path fill="#E9C964" opacity="1.000000" stroke="none" 
	d="
M285.046265,153.474457 
	C288.777557,153.006393 292.453583,153.001846 296.595032,152.994507 
	C297.105072,157.344193 297.149628,161.696655 297.139862,166.508728 
	C294.167297,167.443054 291.249054,167.917770 288.141052,168.739929 
	C286.944397,167.963348 285.179840,166.908279 285.070099,165.702606 
	C284.715973,161.810898 284.970856,157.863754 285.046265,153.474457 
z"/>
<path fill="#FCEB96" opacity="1.000000" stroke="none" 
	d="
M216.998352,77.533264 
	C213.289581,77.996796 209.610886,77.998016 205.473206,77.998657 
	C204.981277,75.001846 205.186157,71.979561 204.861588,69.015251 
	C204.328354,64.145111 207.641037,63.268089 211.034561,63.272926 
	C214.453674,63.277802 217.714294,64.244904 217.126617,69.086090 
	C216.807739,71.712975 217.043076,74.407127 216.998352,77.533264 
z"/>
<path fill="#E2BE57" opacity="1.000000" stroke="none" 
	d="
M139.759018,183.569763 
	C135.888763,184.022339 132.118027,184.018936 127.926392,184.027328 
	C127.428749,180.000351 127.352005,175.961578 127.385162,171.471283 
	C131.263123,171.017197 135.031189,171.014618 139.232285,171.016266 
	C139.729721,175.051575 139.794128,179.082672 139.759018,183.569763 
z"/>
<path fill="#D2A73D" opacity="1.000000" stroke="none" 
	d="
M230.073608,206.473907 
	C233.828186,206.310211 237.521286,206.606857 241.626160,206.957123 
	C242.093948,211.367844 242.149933,215.724945 242.117004,220.539581 
	C238.360580,220.666183 234.693069,220.335236 230.584442,220.008240 
	C230.099594,215.652893 230.055847,211.293564 230.073608,206.473907 
z"/>
<path fill="#CC9F34" opacity="1.000000" stroke="none" 
	d="
M164.066315,218.011322 
	C164.127029,222.368027 164.187729,226.724716 163.688507,231.539764 
	C159.446732,232.000900 155.764893,232.003693 152.083069,232.006500 
	C152.028900,227.646057 151.974716,223.285629 152.452393,218.464676 
	C156.678253,218.006546 160.372284,218.008926 164.066315,218.011322 
z"/>
<path fill="#FCE991" opacity="1.000000" stroke="none" 
	d="
M217.011566,111.544060 
	C213.287155,112.005226 209.609467,112.002922 205.472763,112.001678 
	C204.995392,107.645180 204.977036,103.287605 204.986084,98.466248 
	C208.693741,98.002266 212.373978,98.002060 216.511627,98.003983 
	C216.998779,102.364273 217.028549,106.722427 217.011566,111.544060 
z"/>
<path fill="#C59529" opacity="1.000000" stroke="none" 
	d="
M152.000153,232.464630 
	C155.764893,232.003693 159.446732,232.000900 163.592743,231.996094 
	C164.123444,236.357681 164.189957,240.721313 164.153778,245.540054 
	C160.367966,245.999405 156.684875,246.003632 152.547241,246.008209 
	C152.034210,241.646637 151.975723,237.284698 152.000153,232.464630 
z"/>
<path fill="#C49428" opacity="1.000000" stroke="none" 
	d="
M285.041931,233.469421 
	C288.788025,233.005600 292.464264,233.001389 296.605286,232.994507 
	C297.136566,237.355850 297.203064,241.719864 297.166443,246.538849 
	C293.383148,246.997360 289.702881,247.000916 285.569305,247.006927 
	C285.067993,242.649277 285.019989,238.289154 285.041931,233.469421 
z"/>
<path fill="#C08E25" opacity="1.000000" stroke="none" 
	d="
M98.192825,240.036743 
	C96.252403,249.687714 94.311974,259.338684 92.365646,269.018982 
	C87.990089,268.228210 87.060211,266.163208 87.968094,262.524780 
	C89.768219,255.310577 91.246017,248.015945 93.404373,240.377792 
	C95.365417,240.012939 96.779129,240.024841 98.192825,240.036743 
z"/>
<path fill="#D3A941" opacity="1.000000" stroke="none" 
	d="
M164.238998,217.672302 
	C160.372284,218.008926 156.678253,218.006546 152.528351,218.005554 
	C152.014694,215.300659 151.956909,212.594360 152.173203,209.330063 
	C152.646790,208.364380 152.846298,207.956696 153.045807,207.549011 
	C153.463074,207.406006 153.880356,207.263016 154.622269,207.049835 
	C157.376968,205.658371 159.807022,204.337067 162.647034,203.015808 
	C163.508545,207.788345 163.960114,212.560822 164.238998,217.672302 
z"/>
<path fill="#FAE386" opacity="1.000000" stroke="none" 
	d="
M269.807373,119.580429 
	C266.041351,120.016815 262.359741,119.992828 258.187775,119.929321 
	C257.489014,115.893860 257.280609,111.897919 257.565857,107.456833 
	C261.957855,107.021484 265.856140,107.031288 269.754425,107.041092 
	C269.800201,111.067406 269.846008,115.093735 269.807373,119.580429 
z"/>
<path fill="#DCB64F" opacity="1.000000" stroke="none" 
	d="
M178.564301,180.397583 
	C182.091263,179.958160 185.551834,179.985397 189.464691,180.031555 
	C190.008301,183.119995 190.099609,186.189529 190.401062,189.583160 
	C190.649979,190.724472 190.688766,191.541672 190.617950,192.755020 
	C186.854507,193.428635 183.200684,193.706100 179.051208,193.961105 
	C178.536331,189.580521 178.517120,185.222382 178.564301,180.397583 
z"/>
<path fill="#E3C15F" opacity="1.000000" stroke="none" 
	d="
M83.752296,191.628174 
	C81.740227,192.030579 79.767532,192.016800 77.366592,192.006699 
	C76.327438,185.323517 75.716545,178.636658 75.581070,171.482086 
	C78.009552,171.014572 79.962616,171.014755 81.915672,171.014923 
	C82.541008,177.747284 83.166344,184.479630 83.752296,191.628174 
z"/>
<path fill="#C39226" opacity="1.000000" stroke="none" 
	d="
M230.075195,236.469925 
	C233.829727,236.307083 237.518433,236.602814 241.618591,236.947586 
	C242.093079,240.695877 242.156113,244.395142 242.119904,248.546249 
	C238.362427,249.000046 234.704193,249.001968 230.594818,249.006989 
	C230.098907,244.982864 230.054138,240.955688 230.075195,236.469925 
z"/>
<path fill="#F8DE7C" opacity="1.000000" stroke="none" 
	d="
M76.157417,152.016357 
	C77.554070,145.170059 78.950722,138.323761 81.037231,131.221207 
	C83.586609,130.984100 85.446129,131.003250 87.305641,131.022415 
	C85.942673,137.778305 84.579712,144.534195 82.698174,151.642639 
	C80.172203,152.002243 78.164810,152.009293 76.157417,152.016357 
z"/>
<path fill="#FDEFA2" opacity="1.000000" stroke="none" 
	d="
M101.958725,98.985954 
	C98.921196,104.876053 95.883675,110.766144 92.121826,116.843887 
	C89.335693,117.034187 87.273872,117.036842 85.212067,117.039505 
	C88.273811,110.821045 91.335548,104.602577 95.027863,98.334000 
	C97.758537,98.517906 99.858627,98.751930 101.958725,98.985954 
z"/>
<path fill="#FAE386" opacity="1.000000" stroke="none" 
	d="
M317.955292,72.186600 
	C322.281403,77.205261 326.607483,82.223923 330.763123,87.862869 
	C328.463928,88.972504 326.335266,89.461853 324.206573,89.951195 
	C320.317749,85.011330 316.428955,80.071472 312.946808,74.649796 
	C314.887421,73.507515 316.421356,72.847061 317.955292,72.186600 
z"/>
<path fill="#D2A73D" opacity="1.000000" stroke="none" 
	d="
M338.165680,227.020645 
	C340.366028,221.235489 342.566376,215.450317 345.358398,209.336441 
	C347.953644,209.003540 349.957245,208.999359 351.960876,208.995178 
	C349.812714,215.175003 347.664551,221.354828 344.872314,227.724258 
	C342.207397,227.616119 340.186554,227.318375 338.165680,227.020645 
z"/>
<path fill="#FCE991" opacity="1.000000" stroke="none" 
	d="
M230.119644,111.020523 
	C230.085114,108.533562 229.890198,106.035934 230.054581,103.562195 
	C230.286346,100.074783 232.301880,98.094238 235.828918,98.024979 
	C239.556351,97.951782 241.757401,99.872467 242.051941,103.627762 
	C242.220123,105.772148 242.091370,107.939827 241.596313,110.547729 
	C237.437408,111.005798 233.778534,111.013161 230.119644,111.020523 
z"/>
<path fill="#F9E182" opacity="1.000000" stroke="none" 
	d="
M230.075958,111.477913 
	C233.778534,111.013161 237.437408,111.005798 241.558075,110.996925 
	C242.050995,114.689980 242.082138,118.384537 242.069397,122.537804 
	C238.358093,122.998962 234.690689,123.001419 230.573456,123.009293 
	C230.093185,119.321579 230.062714,115.628433 230.075958,111.477913 
z"/>
<path fill="#D9B24B" opacity="1.000000" stroke="none" 
	d="
M257.236023,30.953876 
	C257.170624,27.260279 257.105225,23.566677 257.576294,19.426678 
	C261.688568,18.978071 265.264404,18.975864 268.840240,18.973658 
	C268.872650,22.666302 268.905060,26.358948 268.438782,30.518681 
	C264.372040,30.975140 260.804047,30.964508 257.236023,30.953876 
z"/>
<path fill="#FCEB96" opacity="1.000000" stroke="none" 
	d="
M269.830688,106.584595 
	C265.856140,107.031288 261.957855,107.021484 257.614014,107.020805 
	C257.129089,103.663628 257.089752,100.297318 257.097198,96.476456 
	C261.065399,96.018166 264.986786,96.014435 269.349854,96.019707 
	C269.829987,99.395164 269.868500,102.761627 269.830688,106.584595 
z"/>
<path fill="#E3C059" opacity="1.000000" stroke="none" 
	d="
M164.118988,178.539795 
	C160.325867,179.294617 156.600952,179.593002 152.471588,179.946762 
	C152.024460,176.308014 151.981735,172.613907 152.000854,168.462860 
	C155.757187,167.670059 159.451645,167.334198 163.598663,166.996124 
	C164.096527,170.690369 164.141861,174.386871 164.118988,178.539795 
z"/>
<path fill="#F0D26E" opacity="1.000000" stroke="none" 
	d="
M76.080353,152.435913 
	C78.164810,152.009293 80.172203,152.002243 82.533051,152.005432 
	C82.607437,158.042526 82.328369,164.069382 81.982483,170.555573 
	C79.962616,171.014755 78.009552,171.014572 75.641876,171.024048 
	C75.485931,164.974304 75.744606,158.914902 76.080353,152.435913 
z"/>
<path fill="#C08E25" opacity="1.000000" stroke="none" 
	d="
M326.313293,258.882568 
	C324.238922,258.045654 322.463684,257.057709 320.311584,256.021240 
	C323.134369,251.451965 326.334045,246.931183 330.213165,242.213196 
	C332.986877,242.358673 335.081116,242.701340 337.175385,243.044006 
	C333.654419,248.273178 330.133423,253.502365 326.313293,258.882568 
z"/>
<path fill="#FDEFA2" opacity="1.000000" stroke="none" 
	d="
M339.774597,116.068062 
	C337.201508,111.303009 334.628418,106.537956 332.241852,101.135757 
	C334.344421,99.972176 336.260468,99.445732 338.176544,98.919289 
	C341.024445,104.388725 343.872345,109.858162 346.380493,115.666107 
	C343.952026,116.025764 341.863312,116.046913 339.774597,116.068062 
z"/>
<path fill="#CC9F34" opacity="1.000000" stroke="none" 
	d="
M268.896179,18.514469 
	C265.264404,18.975864 261.688568,18.978071 257.670776,18.972946 
	C257.202972,18.803490 257.161713,18.642145 257.153442,18.479130 
	C256.566559,6.881318 256.597076,6.854600 268.952148,8.443871 
	C268.952148,11.605358 268.952148,14.830318 268.896179,18.514469 
z"/>
<path fill="#FAE285" opacity="1.000000" stroke="none" 
	d="
M102.921356,85.906364 
	C106.696564,81.312851 110.471771,76.719337 114.760635,72.264542 
	C117.441994,72.921524 119.609680,73.439796 121.777374,73.958069 
	C117.922394,78.442894 114.067406,82.927727 109.647224,87.644379 
	C107.028465,87.219597 104.974915,86.562981 102.921356,85.906364 
z"/>
<path fill="#CA9D37" opacity="1.000000" stroke="none" 
	d="
M98.440277,239.762268 
	C96.779129,240.024841 95.365417,240.012939 93.528778,240.007797 
	C95.480675,232.772034 97.855507,225.529510 100.512459,218.103821 
	C102.123459,218.461456 103.452339,219.002243 104.952042,219.878998 
	C100.999878,225.978821 99.956261,232.770859 98.440277,239.762268 
z"/>
<path fill="#DBB654" opacity="1.000000" stroke="none" 
	d="
M352.192383,208.706314 
	C349.957245,208.999359 347.953644,209.003540 345.522125,209.012619 
	C345.814087,201.353302 348.650452,194.860443 356.684723,189.638489 
	C355.102356,196.612564 353.763123,202.514999 352.192383,208.706314 
z"/>
<path fill="#FAE285" opacity="1.000000" stroke="none" 
	d="
M350.232941,125.878525 
	C351.479797,129.597397 353.551300,133.286560 353.686676,137.045471 
	C353.778595,139.597336 351.154236,142.247055 349.744629,144.853012 
	C349.281342,144.756195 348.818054,144.659378 348.354797,144.562546 
	C346.907349,138.997208 345.459900,133.431854 344.233948,127.180130 
	C346.381287,126.288673 348.307129,126.083603 350.232941,125.878525 
z"/>
<path fill="#C7982D" opacity="1.000000" stroke="none" 
	d="
M337.450012,242.831177 
	C335.081116,242.701340 332.986877,242.358673 330.488647,242.022827 
	C332.649139,237.223343 335.213562,232.417053 337.971832,227.315704 
	C340.186554,227.318375 342.207397,227.616119 344.610535,227.955444 
	C342.570068,232.870789 340.147369,237.744553 337.450012,242.831177 
z"/>
<path fill="#D3AD53" opacity="1.000000" stroke="none" 
	d="
M139.791229,216.614365 
	C135.898911,217.052307 132.114594,217.043594 127.905373,217.061157 
	C127.388588,214.787842 127.296700,212.488281 127.624969,209.674774 
	C131.055481,208.379669 134.065811,207.598480 137.076157,206.817276 
	C138.033737,207.697449 139.620850,208.456573 139.818192,209.482910 
	C140.232315,211.636749 139.915771,213.931061 139.791229,216.614365 
z"/>
<path fill="#E7C661" opacity="1.000000" stroke="none" 
	d="
M257.143188,31.398792 
	C260.804047,30.964508 264.372040,30.975140 268.385803,30.974890 
	C269.165070,33.692261 269.498657,36.420513 269.327576,39.564072 
	C264.952972,39.974514 261.082977,39.969654 257.213013,39.964798 
	C257.158813,37.257767 257.104584,34.550735 257.143188,31.398792 
z"/>
<path fill="#C39226" opacity="1.000000" stroke="none" 
	d="
M174.265152,34.833069 
	C177.207108,35.204121 179.788727,35.559090 182.352249,36.015785 
	C184.187714,36.342785 185.998917,36.806057 187.909973,37.600922 
	C182.912720,39.544956 177.826431,41.096600 172.261963,42.308762 
	C170.270401,41.644753 168.668945,41.527855 167.269608,40.934406 
	C165.996414,40.394444 164.942734,39.336796 163.792297,38.507347 
	C167.160553,37.291733 170.528824,36.076122 174.265152,34.833069 
z"/>
<path fill="#FCE991" opacity="1.000000" stroke="none" 
	d="
M85.095856,117.393860 
	C87.273872,117.036842 89.335693,117.034187 91.861320,117.059212 
	C90.804428,121.567940 89.283722,126.048981 87.534332,130.776215 
	C85.446129,131.003250 83.586609,130.984100 81.263191,130.929504 
	C82.192741,126.512115 83.586197,122.130165 85.095856,117.393860 
z"/>
<path fill="#EBCD6B" opacity="1.000000" stroke="none" 
	d="
M352.289703,160.019867 
	C352.296997,159.188278 352.190643,158.336899 352.331299,157.528519 
	C352.932892,154.070908 354.787354,151.024231 358.424683,151.728928 
	C360.538361,152.138443 363.316986,154.878601 363.742798,156.985153 
	C364.524353,160.851440 361.823029,163.023361 357.339172,162.644897 
	C355.369202,161.503647 353.829437,160.761765 352.289703,160.019867 
z"/>
<path fill="#FCE991" opacity="1.000000" stroke="none" 
	d="
M102.633987,86.082870 
	C104.974915,86.562981 107.028465,87.219597 109.440979,87.918503 
	C107.362335,91.495781 104.924751,95.030762 102.222946,98.775848 
	C99.858627,98.751930 97.758537,98.517906 95.292236,98.126122 
	C97.399551,94.065361 99.873085,90.162361 102.633987,86.082870 
z"/>
<path fill="#D3AA44" opacity="1.000000" stroke="none" 
	d="
M139.974274,50.947960 
	C143.341064,48.905933 146.707870,46.863907 150.669006,45.063881 
	C153.832932,46.178028 156.402527,47.050182 158.972107,47.922333 
	C154.877731,50.233028 150.783340,52.543720 146.270142,54.548103 
	C143.892303,53.143845 141.933289,52.045902 139.974274,50.947960 
z"/>
<path fill="#F2D572" opacity="1.000000" stroke="none" 
	d="
M257.131775,40.405037 
	C261.082977,39.969654 264.952972,39.974514 269.259460,39.965988 
	C269.581482,42.392227 269.466919,44.831848 269.309204,47.674194 
	C265.538788,48.046669 261.811493,48.016422 257.639954,47.977829 
	C257.147308,45.594753 257.098907,43.220020 257.131775,40.405037 
z"/>
<path fill="#CA9D37" opacity="1.000000" stroke="none" 
	d="
M159.334686,47.890831 
	C156.402527,47.050182 153.832932,46.178028 151.015594,44.977585 
	C154.865524,42.659481 158.963211,40.669670 163.426590,38.593601 
	C164.942734,39.336796 165.996414,40.394444 167.269608,40.934406 
	C168.668945,41.527855 170.270401,41.644753 171.899445,42.325996 
	C167.909164,44.408257 163.803223,46.133793 159.334686,47.890831 
z"/>
<path fill="#DEB953" opacity="1.000000" stroke="none" 
	d="
M139.641998,51.042000 
	C141.933289,52.045902 143.892303,53.143845 145.924225,54.608505 
	C142.602066,57.364029 139.207016,59.752834 135.293060,61.942482 
	C132.814789,60.815933 130.855423,59.888546 128.896057,58.961159 
	C132.367279,56.352783 135.838516,53.744411 139.641998,51.042000 
z"/>
<path fill="#D3AA44" opacity="1.000000" stroke="none" 
	d="
M286.809906,55.102699 
	C279.121857,51.550407 279.121857,51.550407 280.493988,43.208782 
	C285.013916,46.241592 289.181732,49.038143 293.584229,52.348743 
	C291.482605,53.609428 289.146240,54.356064 286.809906,55.102699 
z"/>
<path fill="#FCEB96" opacity="1.000000" stroke="none" 
	d="
M338.084442,98.578857 
	C336.260468,99.445732 334.344421,99.972176 332.193298,100.784744 
	C329.441895,97.573555 326.925507,94.076218 324.307861,90.265045 
	C326.335266,89.461853 328.463928,88.972504 330.835632,88.198799 
	C333.383240,91.355766 335.687775,94.797096 338.084442,98.578857 
z"/>
<path fill="#E1BD5A" opacity="1.000000" stroke="none" 
	d="
M287.003357,55.384262 
	C289.146240,54.356064 291.482605,53.609428 293.892151,52.508965 
	C297.366821,54.477280 300.768280,56.799427 303.962158,59.595924 
	C301.735443,60.911369 299.716309,61.752464 297.697144,62.593559 
	C294.197052,60.284317 290.696930,57.975071 287.003357,55.384262 
z"/>
<path fill="#E9C964" opacity="1.000000" stroke="none" 
	d="
M128.570984,59.038128 
	C130.855423,59.888546 132.814789,60.815933 134.965393,62.072487 
	C133.038635,64.233864 130.920639,66.066086 128.048157,67.962090 
	C124.942314,67.593422 122.590965,67.160965 120.239624,66.728516 
	C122.908379,64.190712 125.577141,61.652905 128.570984,59.038128 
z"/>
<path fill="#E9C964" opacity="1.000000" stroke="none" 
	d="
M352.059570,160.282349 
	C353.829437,160.761765 355.369202,161.503647 356.948120,162.599762 
	C354.548706,166.232635 352.110077,169.511276 349.394714,172.981323 
	C347.907654,172.449631 346.697357,171.726562 345.123016,170.946899 
	C347.115814,167.441818 349.472626,163.993332 352.059570,160.282349 
z"/>
<path fill="#FCEB96" opacity="1.000000" stroke="none" 
	d="
M350.184113,125.499969 
	C348.307129,126.083603 346.381287,126.288673 344.180420,126.794189 
	C342.576263,123.669601 341.247131,120.244553 339.846313,116.443787 
	C341.863312,116.046913 343.952026,116.025764 346.477783,116.009338 
	C347.988312,119.049835 349.061798,122.085625 350.184113,125.499969 
z"/>
<path fill="#F4D773" opacity="1.000000" stroke="none" 
	d="
M317.682373,71.982819 
	C316.421356,72.847061 314.887421,73.507515 312.929077,74.294830 
	C309.802002,72.469810 307.099274,70.517937 304.638489,68.220497 
	C306.906647,66.997543 308.932892,66.120155 310.959106,65.242767 
	C313.109222,67.421524 315.259308,69.600273 317.682373,71.982819 
z"/>
<path fill="#E9C964" opacity="1.000000" stroke="none" 
	d="
M310.674500,65.050568 
	C308.932892,66.120155 306.906647,66.997543 304.516266,67.913559 
	C302.100281,66.342041 300.048492,64.731895 297.846924,62.857651 
	C299.716309,61.752464 301.735443,60.911369 304.162018,59.892380 
	C306.509583,61.429115 308.449768,63.143738 310.674500,65.050568 
z"/>
<path fill="#F2D572" opacity="1.000000" stroke="none" 
	d="
M119.965195,66.816879 
	C122.590965,67.160965 124.942314,67.593422 127.733635,68.055222 
	C126.189751,69.870499 124.205894,71.656425 121.999702,73.700211 
	C119.609680,73.439796 117.441994,72.921524 115.046806,72.089355 
	C116.443130,70.152061 118.066948,68.528656 119.965195,66.816879 
z"/>
<path fill="#F9F2DF" opacity="1.000000" stroke="none" 
	d="
M258.002014,171.872879 
	C261.537476,171.215042 265.072968,170.557205 268.965332,169.844360 
	C269.599792,169.830124 269.877380,169.870895 270.573547,169.954254 
	C266.901276,171.281265 262.810333,172.565643 258.317017,173.833954 
	C257.670746,173.361679 257.426910,172.905457 257.350739,172.208206 
	C257.518402,171.967178 258.002014,171.872879 258.002014,171.872879 
z"/>
<path fill="#EDDDB7" opacity="1.000000" stroke="none" 
	d="
M296.953796,182.013245 
	C293.522736,180.857239 290.517609,179.661026 287.256256,178.221558 
	C287.012085,177.549820 287.024170,177.121323 286.998535,176.373627 
	C288.752594,176.571213 290.544403,177.088028 292.677155,177.670441 
	C294.934631,178.924866 296.851166,180.113693 298.926208,181.594910 
	C298.516418,181.915894 297.948090,181.944458 296.953796,182.013245 
z"/>
<path fill="#F0E4C8" opacity="1.000000" stroke="none" 
	d="
M214.933746,207.685242 
	C211.980698,209.931320 208.958939,211.817627 205.659943,213.865036 
	C205.118668,214.001495 204.854599,213.976852 204.196167,213.896973 
	C205.048965,208.406464 210.727905,209.349976 214.313049,206.701096 
	C214.728470,206.856522 214.796738,207.090988 214.933746,207.685242 
z"/>
<path fill="#F0E4C8" opacity="1.000000" stroke="none" 
	d="
M137.055634,206.533051 
	C134.065811,207.598480 131.055481,208.379669 127.672775,209.250641 
	C127.238411,209.001358 127.176414,208.662277 127.069145,207.806854 
	C130.105026,206.543930 133.186188,205.797363 136.666656,205.080383 
	C137.055679,205.489594 137.045410,205.869217 137.055634,206.533051 
z"/>
<path fill="#BE8C24" opacity="1.000000" stroke="none" 
	d="
M114.021301,257.415405 
	C112.923401,258.138458 111.722145,258.540771 110.109001,258.910614 
	C110.174820,257.554535 110.652519,256.230896 111.713196,253.291977 
	C112.806068,255.176941 113.362000,256.135803 114.021301,257.415405 
z"/>
<path fill="#D8B14E" opacity="1.000000" stroke="none" 
	d="
M152.769150,207.527954 
	C152.846298,207.956696 152.646790,208.364380 152.241287,208.883362 
	C152.187698,208.498734 152.340088,208.002808 152.769150,207.527954 
z"/>
<path fill="#EBCD6B" opacity="1.000000" stroke="none" 
	d="
M178.597229,200.186035 
	C178.882233,200.493378 179.184723,200.814865 179.487228,201.136337 
	C179.270874,201.016663 179.054520,200.896988 178.723053,200.501617 
	C178.607925,200.225922 178.614731,200.200180 178.597229,200.186035 
z"/>
<path fill="#F0E4C8" opacity="1.000000" stroke="none" 
	d="
M217.014343,207.546722 
	C216.908798,207.697922 216.717789,207.672836 216.241180,207.603378 
	C216.280029,207.496124 216.604462,207.433273 217.014343,207.546722 
z"/>
<path fill="#EED379" opacity="1.000000" stroke="none" 
	d="
M257.895447,171.689972 
	C258.002014,171.872879 257.518402,171.967178 257.272217,171.960632 
	C257.026062,171.954086 257.000519,171.471161 257.060089,171.236847 
	C257.390778,171.107010 257.613831,171.275177 257.895447,171.689972 
z"/>
<path fill="#FFFFFF" opacity="1.000000" stroke="none" 
	d="
M524.224365,126.444550 
	C529.219543,115.464333 535.503296,106.151276 546.615967,101.115089 
	C557.454163,96.203316 575.277100,98.752762 584.240906,107.489807 
	C594.520752,117.509682 599.607178,129.716537 600.828674,143.403580 
	C602.235901,159.171555 603.198486,175.080139 602.764526,190.884018 
	C602.301208,207.758865 597.876282,223.898560 587.601379,237.864090 
	C581.410339,246.278793 564.694092,251.775803 554.360779,249.829056 
	C535.191467,246.217682 527.191895,232.080200 522.191223,215.741592 
	C517.060181,198.977203 516.124023,181.480515 517.111389,164.035995 
	C517.827087,151.392014 519.621826,138.815979 524.224365,126.444550 
z"/>
<path fill="#FFFFFF" opacity="1.000000" stroke="none" 
	d="
M944.000000,175.225586 
	C946.049377,168.018677 947.174011,160.803436 950.362366,154.659103 
	C955.281006,145.180405 967.009705,145.520721 971.833740,155.098877 
	C974.156982,159.711807 975.222961,165.170624 975.848938,170.367950 
	C976.518555,175.927887 975.999878,181.630936 975.999878,187.635223 
	C965.500916,187.635223 955.126038,187.635223 944.000000,187.635223 
	C944.000000,183.832184 944.000000,179.764648 944.000000,175.225586 
z"/>
<path fill="#FFFFFF" opacity="1.000000" stroke="none" 
	d="
M239.620880,189.863724 
	C237.606644,191.053055 235.173370,192.126755 232.356934,193.114441 
	C232.713379,188.255737 237.048874,191.406525 239.620880,189.863724 
z"/>
<path fill="#FFFFFF" opacity="1.000000" stroke="none" 
	d="
M183.856384,210.680389 
	C182.800400,210.905655 181.561127,210.790222 180.138184,210.334396 
	C181.194046,210.109238 182.433578,210.224457 183.856384,210.680389 
z"/>
<path fill="#FFFFFF" opacity="1.000000" stroke="none" 
	d="
M231.712006,192.968292 
	C231.899109,193.341675 231.769165,193.711807 231.306015,194.056610 
	C231.113525,193.675873 231.254257,193.320450 231.712006,192.968292 
z"/>
<path fill="#FFFFFF" opacity="1.000000" stroke="none" 
	d="
M230.700928,193.951004 
	C230.889771,194.324905 230.747940,194.676956 230.290665,195.031158 
	C230.106888,194.665253 230.238586,194.297195 230.700928,193.951004 
z"/>
<path fill="#FFFFFF" opacity="1.000000" stroke="none" 
	d="
M232.391449,179.154404 
	C234.698334,178.599457 237.435394,178.181473 240.607040,177.875244 
	C238.301620,178.421799 235.561630,178.856567 232.391449,179.154404 
z"/>
<path fill="#FFFFFF" opacity="1.000000" stroke="none" 
	d="
M241.277069,177.995972 
	C241.123886,177.699509 241.271835,177.365265 241.724457,177.002197 
	C241.878830,177.301636 241.728500,177.629913 241.277069,177.995972 
z"/>
</svg>